<svg width="1528" height="16" viewBox="0 0 1528 16" fill="none" xmlns="http://www.w3.org/2000/svg">
<path d="M2.5 7.00006H0.5V11.0001H2.5V7.00006ZM78.5 7.00006C77.3954 7.00006 76.5 7.89549 76.5 9.00006C76.5 10.1046 77.3954 11.0001 78.5 11.0001V7.00006ZM2.5 11.0001C6.00569 11.0001 8.47827 10.6117 10.3323 9.93944C12.249 9.24441 13.391 8.28624 14.2674 7.37879C15.21 6.4027 15.4555 6.00115 16.0752 5.60607C16.5482 5.30456 17.3532 4.97882 19.1298 4.97882V0.978821C16.8415 0.978821 15.2229 1.40573 13.9249 2.2332C12.7738 2.96711 11.9012 4.07087 11.3901 4.60009C10.8127 5.19795 10.1654 5.74509 8.96867 6.17904C7.70923 6.63573 5.74431 7.00006 2.5 7.00006V11.0001ZM19.1298 4.97882C20.6269 4.97882 21.5173 5.4545 22.2295 6.14092C23.0515 6.93319 23.6675 8.02288 24.5026 9.4826C25.2735 10.8301 26.2371 12.4979 27.7059 13.7831C29.2628 15.1455 31.2811 16.0001 34 16.0001V12.0001C32.2189 12.0001 31.1446 11.477 30.3399 10.7729C29.4471 9.99157 28.7799 8.90404 27.9746 7.49628C27.2333 6.20068 26.3274 4.53507 25.0053 3.26086C23.5734 1.8808 21.6976 0.978821 19.1298 0.978821V4.97882ZM34 16.0001C36.6696 16.0001 38.577 15.2369 39.9846 13.8748C41.2583 12.6421 41.9828 11.0066 42.5389 9.89448C43.1563 8.65968 43.6751 7.78287 44.5007 7.14781C45.28 6.54829 46.5626 6.00006 49 6.00006V2.00006C45.9374 2.00006 43.72 2.70182 42.0618 3.97731C40.4499 5.21724 39.5937 6.84043 38.9611 8.10563C38.2672 9.49352 37.8667 10.358 37.2029 11.0004C36.673 11.5132 35.8304 12.0001 34 12.0001V16.0001ZM49 6.00006C50.9209 6.00006 52.007 6.28103 52.7552 6.61114C53.5728 6.97183 54.0793 7.4074 55.0875 8.12753C56.0692 8.82869 57.2691 9.58134 59.1128 10.1345C60.9185 10.6762 63.2502 11.0001 66.5 11.0001V7.00006C63.4998 7.00006 61.5815 6.69894 60.2622 6.30316C58.9809 5.91877 58.1808 5.42143 57.4125 4.87259C56.6707 4.34272 55.6772 3.52828 54.3698 2.95147C52.993 2.34409 51.3291 2.00006 49 2.00006V6.00006ZM66.5 11.0001C66.5092 11.0001 66.5183 11.0001 66.5275 11.0001C66.5367 11.0001 66.5458 11.0001 66.555 11.0001C66.5642 11.0001 66.5734 11.0001 66.5826 11.0001C66.5919 11.0001 66.6011 11.0001 66.6103 11.0001C66.6195 11.0001 66.6288 11.0001 66.638 11.0001C66.6473 11.0001 66.6565 11.0001 66.6658 11.0001C66.6751 11.0001 66.6844 11.0001 66.6937 11.0001C66.7029 11.0001 66.7122 11.0001 66.7216 11.0001C66.7309 11.0001 66.7402 11.0001 66.7495 11.0001C66.7588 11.0001 66.7682 11.0001 66.7775 11.0001C66.7869 11.0001 66.7962 11.0001 66.8056 11.0001C66.8149 11.0001 66.8243 11.0001 66.8337 11.0001C66.8431 11.0001 66.8525 11.0001 66.8619 11.0001C66.8713 11.0001 66.8807 11.0001 66.8901 11.0001C66.8995 11.0001 66.909 11.0001 66.9184 11.0001C66.9278 11.0001 66.9373 11.0001 66.9467 11.0001C66.9562 11.0001 66.9657 11.0001 66.9751 11.0001C66.9846 11.0001 66.9941 11.0001 67.0036 11.0001C67.0131 11.0001 67.0226 11.0001 67.0321 11.0001C67.0416 11.0001 67.0511 11.0001 67.0606 11.0001C67.0701 11.0001 67.0797 11.0001 67.0892 11.0001C67.0987 11.0001 67.1083 11.0001 67.1179 11.0001C67.1274 11.0001 67.137 11.0001 67.1466 11.0001C67.1561 11.0001 67.1657 11.0001 67.1753 11.0001C67.1849 11.0001 67.1945 11.0001 67.2041 11.0001C67.2137 11.0001 67.2233 11.0001 67.2329 11.0001C67.2426 11.0001 67.2522 11.0001 67.2618 11.0001C67.2715 11.0001 67.2811 11.0001 67.2908 11.0001C67.3004 11.0001 67.3101 11.0001 67.3198 11.0001C67.3295 11.0001 67.3391 11.0001 67.3488 11.0001C67.3585 11.0001 67.3682 11.0001 67.3779 11.0001C67.3876 11.0001 67.3973 11.0001 67.407 11.0001C67.4168 11.0001 67.4265 11.0001 67.4362 11.0001C67.446 11.0001 67.4557 11.0001 67.4654 11.0001C67.4752 11.0001 67.4849 11.0001 67.4947 11.0001C67.5045 11.0001 67.5143 11.0001 67.524 11.0001C67.5338 11.0001 67.5436 11.0001 67.5534 11.0001C67.5632 11.0001 67.573 11.0001 67.5828 11.0001C67.5926 11.0001 67.6024 11.0001 67.6122 11.0001C67.6221 11.0001 67.6319 11.0001 67.6417 11.0001C67.6516 11.0001 67.6614 11.0001 67.6712 11.0001C67.6811 11.0001 67.691 11.0001 67.7008 11.0001C67.7107 11.0001 67.7206 11.0001 67.7304 11.0001C67.7403 11.0001 67.7502 11.0001 67.7601 11.0001C67.77 11.0001 67.7799 11.0001 67.7898 11.0001C67.7997 11.0001 67.8096 11.0001 67.8195 11.0001C67.8294 11.0001 67.8394 11.0001 67.8493 11.0001C67.8592 11.0001 67.8692 11.0001 67.8791 11.0001C67.8891 11.0001 67.899 11.0001 67.909 11.0001C67.9189 11.0001 67.9289 11.0001 67.9389 11.0001C67.9488 11.0001 67.9588 11.0001 67.9688 11.0001C67.9788 11.0001 67.9887 11.0001 67.9987 11.0001C68.0087 11.0001 68.0187 11.0001 68.0287 11.0001C68.0388 11.0001 68.0488 11.0001 68.0588 11.0001C68.0688 11.0001 68.0788 11.0001 68.0889 11.0001C68.0989 11.0001 68.1089 11.0001 68.119 11.0001C68.129 11.0001 68.1391 11.0001 68.1491 11.0001C68.1592 11.0001 68.1692 11.0001 68.1793 11.0001C68.1894 11.0001 68.1994 11.0001 68.2095 11.0001C68.2196 11.0001 68.2297 11.0001 68.2398 11.0001C68.2499 11.0001 68.26 11.0001 68.2701 11.0001C68.2802 11.0001 68.2903 11.0001 68.3004 11.0001C68.3105 11.0001 68.3206 11.0001 68.3307 11.0001C68.3408 11.0001 68.351 11.0001 68.3611 11.0001C68.3712 11.0001 68.3814 11.0001 68.3915 11.0001C68.4017 11.0001 68.4118 11.0001 68.422 11.0001C68.4321 11.0001 68.4423 11.0001 68.4524 11.0001C68.4626 11.0001 68.4728 11.0001 68.4829 11.0001C68.4931 11.0001 68.5033 11.0001 68.5135 11.0001C68.5237 11.0001 68.5339 11.0001 68.544 11.0001C68.5542 11.0001 68.5644 11.0001 68.5746 11.0001C68.5848 11.0001 68.595 11.0001 68.6053 11.0001C68.6155 11.0001 68.6257 11.0001 68.6359 11.0001C68.6461 11.0001 68.6564 11.0001 68.6666 11.0001C68.6768 11.0001 68.687 11.0001 68.6973 11.0001C68.7075 11.0001 68.7178 11.0001 68.728 11.0001C68.7383 11.0001 68.7485 11.0001 68.7588 11.0001C68.769 11.0001 68.7793 11.0001 68.7896 11.0001C68.7998 11.0001 68.8101 11.0001 68.8204 11.0001C68.8307 11.0001 68.8409 11.0001 68.8512 11.0001C68.8615 11.0001 68.8718 11.0001 68.8821 11.0001C68.8924 11.0001 68.9027 11.0001 68.913 11.0001C68.9233 11.0001 68.9336 11.0001 68.9439 11.0001C68.9542 11.0001 68.9645 11.0001 68.9748 11.0001C68.9851 11.0001 68.9954 11.0001 69.0058 11.0001C69.0161 11.0001 69.0264 11.0001 69.0367 11.0001C69.0471 11.0001 69.0574 11.0001 69.0677 11.0001C69.0781 11.0001 69.0884 11.0001 69.0987 11.0001C69.1091 11.0001 69.1194 11.0001 69.1298 11.0001C69.1401 11.0001 69.1505 11.0001 69.1608 11.0001C69.1712 11.0001 69.1816 11.0001 69.1919 11.0001C69.2023 11.0001 69.2127 11.0001 69.223 11.0001C69.2334 11.0001 69.2438 11.0001 69.2542 11.0001C69.2645 11.0001 69.2749 11.0001 69.2853 11.0001C69.2957 11.0001 69.3061 11.0001 69.3164 11.0001C69.3268 11.0001 69.3372 11.0001 69.3476 11.0001C69.358 11.0001 69.3684 11.0001 69.3788 11.0001C69.3892 11.0001 69.3996 11.0001 69.41 11.0001C69.4204 11.0001 69.4308 11.0001 69.4412 11.0001C69.4517 11.0001 69.4621 11.0001 69.4725 11.0001C69.4829 11.0001 69.4933 11.0001 69.5037 11.0001C69.5142 11.0001 69.5246 11.0001 69.535 11.0001C69.5454 11.0001 69.5559 11.0001 69.5663 11.0001C69.5767 11.0001 69.5872 11.0001 69.5976 11.0001C69.608 11.0001 69.6185 11.0001 69.6289 11.0001C69.6394 11.0001 69.6498 11.0001 69.6603 11.0001C69.6707 11.0001 69.6812 11.0001 69.6916 11.0001C69.702 11.0001 69.7125 11.0001 69.723 11.0001C69.7334 11.0001 69.7439 11.0001 69.7543 11.0001C69.7648 11.0001 69.7752 11.0001 69.7857 11.0001C69.7962 11.0001 69.8066 11.0001 69.8171 11.0001C69.8276 11.0001 69.838 11.0001 69.8485 11.0001C69.859 11.0001 69.8694 11.0001 69.8799 11.0001C69.8904 11.0001 69.9009 11.0001 69.9113 11.0001C69.9218 11.0001 69.9323 11.0001 69.9428 11.0001C69.9532 11.0001 69.9637 11.0001 69.9742 11.0001C69.9847 11.0001 69.9952 11.0001 70.0057 11.0001C70.0161 11.0001 70.0266 11.0001 70.0371 11.0001C70.0476 11.0001 70.0581 11.0001 70.0686 11.0001C70.0791 11.0001 70.0896 11.0001 70.1 11.0001C70.1105 11.0001 70.121 11.0001 70.1315 11.0001C70.142 11.0001 70.1525 11.0001 70.163 11.0001C70.1735 11.0001 70.184 11.0001 70.1945 11.0001C70.205 11.0001 70.2155 11.0001 70.226 11.0001C70.2365 11.0001 70.247 11.0001 70.2575 11.0001C70.268 11.0001 70.2785 11.0001 70.289 11.0001C70.2995 11.0001 70.31 11.0001 70.3205 11.0001C70.331 11.0001 70.3415 11.0001 70.352 11.0001C70.3625 11.0001 70.373 11.0001 70.3835 11.0001C70.3941 11.0001 70.4046 11.0001 70.4151 11.0001C70.4256 11.0001 70.4361 11.0001 70.4466 11.0001C70.4571 11.0001 70.4676 11.0001 70.4781 11.0001C70.4886 11.0001 70.4991 11.0001 70.5096 11.0001C70.5201 11.0001 70.5307 11.0001 70.5412 11.0001C70.5517 11.0001 70.5622 11.0001 70.5727 11.0001C70.5832 11.0001 70.5937 11.0001 70.6042 11.0001C70.6147 11.0001 70.6252 11.0001 70.6357 11.0001C70.6463 11.0001 70.6568 11.0001 70.6673 11.0001C70.6778 11.0001 70.6883 11.0001 70.6988 11.0001C70.7093 11.0001 70.7198 11.0001 70.7303 11.0001C70.7408 11.0001 70.7513 11.0001 70.7618 11.0001C70.7724 11.0001 70.7829 11.0001 70.7934 11.0001C70.8039 11.0001 70.8144 11.0001 70.8249 11.0001C70.8354 11.0001 70.8459 11.0001 70.8564 11.0001C70.8669 11.0001 70.8774 11.0001 70.8879 11.0001C70.8984 11.0001 70.9089 11.0001 70.9194 11.0001C70.9299 11.0001 70.9404 11.0001 70.9509 11.0001C70.9614 11.0001 70.9719 11.0001 70.9824 11.0001C70.9929 11.0001 71.0034 11.0001 71.0139 11.0001C71.0244 11.0001 71.0349 11.0001 71.0454 11.0001C71.0559 11.0001 71.0664 11.0001 71.0769 11.0001C71.0873 11.0001 71.0978 11.0001 71.1083 11.0001C71.1188 11.0001 71.1293 11.0001 71.1398 11.0001C71.1503 11.0001 71.1608 11.0001 71.1712 11.0001C71.1817 11.0001 71.1922 11.0001 71.2027 11.0001C71.2132 11.0001 71.2236 11.0001 71.2341 11.0001C71.2446 11.0001 71.2551 11.0001 71.2655 11.0001C71.276 11.0001 71.2865 11.0001 71.297 11.0001C71.3074 11.0001 71.3179 11.0001 71.3284 11.0001C71.3388 11.0001 71.3493 11.0001 71.3598 11.0001C71.3702 11.0001 71.3807 11.0001 71.3912 11.0001C71.4016 11.0001 71.4121 11.0001 71.4225 11.0001C71.433 11.0001 71.4434 11.0001 71.4539 11.0001C71.4643 11.0001 71.4748 11.0001 71.4852 11.0001C71.4957 11.0001 71.5061 11.0001 71.5166 11.0001C71.527 11.0001 71.5375 11.0001 71.5479 11.0001C71.5583 11.0001 71.5688 11.0001 71.5792 11.0001C71.5897 11.0001 71.6001 11.0001 71.6105 11.0001C71.6209 11.0001 71.6314 11.0001 71.6418 11.0001C71.6522 11.0001 71.6627 11.0001 71.6731 11.0001C71.6835 11.0001 71.6939 11.0001 71.7043 11.0001C71.7147 11.0001 71.7252 11.0001 71.7356 11.0001C71.746 11.0001 71.7564 11.0001 71.7668 11.0001C71.7772 11.0001 71.7876 11.0001 71.798 11.0001C71.8084 11.0001 71.8188 11.0001 71.8292 11.0001C71.8396 11.0001 71.85 11.0001 71.8603 11.0001C71.8707 11.0001 71.8811 11.0001 71.8915 11.0001C71.9019 11.0001 71.9122 11.0001 71.9226 11.0001C71.933 11.0001 71.9434 11.0001 71.9537 11.0001C71.9641 11.0001 71.9745 11.0001 71.9848 11.0001C71.9952 11.0001 72.0055 11.0001 72.0159 11.0001C72.0263 11.0001 72.0366 11.0001 72.047 11.0001C72.0573 11.0001 72.0676 11.0001 72.078 11.0001C72.0883 11.0001 72.0987 11.0001 72.109 11.0001C72.1193 11.0001 72.1297 11.0001 72.14 11.0001C72.1503 11.0001 72.1606 11.0001 72.171 11.0001C72.1813 11.0001 72.1916 11.0001 72.2019 11.0001C72.2122 11.0001 72.2225 11.0001 72.2328 11.0001C72.2431 11.0001 72.2534 11.0001 72.2637 11.0001C72.274 11.0001 72.2843 11.0001 72.2946 11.0001C72.3049 11.0001 72.3152 11.0001 72.3255 11.0001C72.3357 11.0001 72.346 11.0001 72.3563 11.0001C72.3666 11.0001 72.3768 11.0001 72.3871 11.0001C72.3973 11.0001 72.4076 11.0001 72.4179 11.0001C72.4281 11.0001 72.4384 11.0001 72.4486 11.0001C72.4589 11.0001 72.4691 11.0001 72.4793 11.0001C72.4896 11.0001 72.4998 11.0001 72.51 11.0001C72.5203 11.0001 72.5305 11.0001 72.5407 11.0001C72.5509 11.0001 72.5611 11.0001 72.5713 11.0001C72.5815 11.0001 72.5918 11.0001 72.6019 11.0001C72.6121 11.0001 72.6223 11.0001 72.6325 11.0001C72.6427 11.0001 72.6529 11.0001 72.6631 11.0001C72.6733 11.0001 72.6834 11.0001 72.6936 11.0001C72.7038 11.0001 72.7139 11.0001 72.7241 11.0001C72.7343 11.0001 72.7444 11.0001 72.7546 11.0001C72.7647 11.0001 72.7749 11.0001 72.785 11.0001C72.7951 11.0001 72.8053 11.0001 72.8154 11.0001C72.8255 11.0001 72.8357 11.0001 72.8458 11.0001C72.8559 11.0001 72.866 11.0001 72.8761 11.0001C72.8862 11.0001 72.8963 11.0001 72.9064 11.0001C72.9165 11.0001 72.9266 11.0001 72.9367 11.0001C72.9468 11.0001 72.9569 11.0001 72.9669 11.0001C72.977 11.0001 72.9871 11.0001 72.9971 11.0001C73.0072 11.0001 73.0173 11.0001 73.0273 11.0001C73.0374 11.0001 73.0474 11.0001 73.0574 11.0001C73.0675 11.0001 73.0775 11.0001 73.0875 11.0001C73.0976 11.0001 73.1076 11.0001 73.1176 11.0001C73.1276 11.0001 73.1376 11.0001 73.1476 11.0001C73.1576 11.0001 73.1676 11.0001 73.1776 11.0001C73.1876 11.0001 73.1976 11.0001 73.2076 11.0001C73.2175 11.0001 73.2275 11.0001 73.2375 11.0001C73.2474 11.0001 73.2574 11.0001 73.2674 11.0001C73.2773 11.0001 73.2873 11.0001 73.2972 11.0001C73.3071 11.0001 73.3171 11.0001 73.327 11.0001C73.3369 11.0001 73.3468 11.0001 73.3568 11.0001C73.3667 11.0001 73.3766 11.0001 73.3865 11.0001C73.3964 11.0001 73.4063 11.0001 73.4162 11.0001C73.426 11.0001 73.4359 11.0001 73.4458 11.0001C73.4557 11.0001 73.4655 11.0001 73.4754 11.0001C73.4853 11.0001 73.4951 11.0001 73.505 11.0001C73.5148 11.0001 73.5246 11.0001 73.5345 11.0001C73.5443 11.0001 73.5541 11.0001 73.5639 11.0001C73.5738 11.0001 73.5836 11.0001 73.5934 11.0001C73.6032 11.0001 73.613 11.0001 73.6228 11.0001C73.6325 11.0001 73.6423 11.0001 73.6521 11.0001C73.6619 11.0001 73.6716 11.0001 73.6814 11.0001C73.6912 11.0001 73.7009 11.0001 73.7106 11.0001C73.7204 11.0001 73.7301 11.0001 73.7399 11.0001C73.7496 11.0001 73.7593 11.0001 73.769 11.0001C73.7787 11.0001 73.7884 11.0001 73.7981 11.0001C73.8078 11.0001 73.8175 11.0001 73.8272 11.0001C73.8369 11.0001 73.8466 11.0001 73.8562 11.0001C73.8659 11.0001 73.8755 11.0001 73.8852 11.0001C73.8949 11.0001 73.9045 11.0001 73.9141 11.0001C73.9238 11.0001 73.9334 11.0001 73.943 11.0001C73.9526 11.0001 73.9622 11.0001 73.9718 11.0001C73.9814 11.0001 73.991 11.0001 74.0006 11.0001C74.0102 11.0001 74.0198 11.0001 74.0294 11.0001C74.0389 11.0001 74.0485 11.0001 74.058 11.0001C74.0676 11.0001 74.0771 11.0001 74.0867 11.0001C74.0962 11.0001 74.1057 11.0001 74.1152 11.0001C74.1248 11.0001 74.1343 11.0001 74.1438 11.0001C74.1533 11.0001 74.1628 11.0001 74.1722 11.0001C74.1817 11.0001 74.1912 11.0001 74.2007 11.0001C74.2101 11.0001 74.2196 11.0001 74.229 11.0001C74.2385 11.0001 74.2479 11.0001 74.2574 11.0001C74.2668 11.0001 74.2762 11.0001 74.2856 11.0001C74.295 11.0001 74.3044 11.0001 74.3138 11.0001C74.3232 11.0001 74.3326 11.0001 74.342 11.0001C74.3514 11.0001 74.3607 11.0001 74.3701 11.0001C74.3794 11.0001 74.3888 11.0001 74.3981 11.0001C74.4075 11.0001 74.4168 11.0001 74.4261 11.0001C74.4354 11.0001 74.4448 11.0001 74.4541 11.0001C74.4634 11.0001 74.4727 11.0001 74.4819 11.0001C74.4912 11.0001 74.5005 11.0001 74.5098 11.0001C74.519 11.0001 74.5283 11.0001 74.5375 11.0001C74.5468 11.0001 74.556 11.0001 74.5652 11.0001C74.5744 11.0001 74.5837 11.0001 74.5929 11.0001C74.6021 11.0001 74.6113 11.0001 74.6205 11.0001C74.6296 11.0001 74.6388 11.0001 74.648 11.0001C74.6572 11.0001 74.6663 11.0001 74.6755 11.0001C74.6846 11.0001 74.6937 11.0001 74.7029 11.0001C74.712 11.0001 74.7211 11.0001 74.7302 11.0001C74.7393 11.0001 74.7484 11.0001 74.7575 11.0001C74.7666 11.0001 74.7757 11.0001 74.7847 11.0001C74.7938 11.0001 74.8028 11.0001 74.8119 11.0001C74.8209 11.0001 74.8299 11.0001 74.839 11.0001C74.848 11.0001 74.857 11.0001 74.866 11.0001C74.875 11.0001 74.884 11.0001 74.893 11.0001C74.902 11.0001 74.9109 11.0001 74.9199 11.0001C74.9288 11.0001 74.9378 11.0001 74.9467 11.0001C74.9557 11.0001 74.9646 11.0001 74.9735 11.0001C74.9824 11.0001 74.9913 11.0001 75.0002 11.0001C75.0091 11.0001 75.018 11.0001 75.0269 11.0001C75.0357 11.0001 75.0446 11.0001 75.0535 11.0001C75.0623 11.0001 75.0711 11.0001 75.08 11.0001C75.0888 11.0001 75.0976 11.0001 75.1064 11.0001C75.1152 11.0001 75.124 11.0001 75.1328 11.0001C75.1416 11.0001 75.1504 11.0001 75.1591 11.0001C75.1679 11.0001 75.1766 11.0001 75.1854 11.0001C75.1941 11.0001 75.2028 11.0001 75.2115 11.0001C75.2203 11.0001 75.229 11.0001 75.2376 11.0001C75.2463 11.0001 75.255 11.0001 75.2637 11.0001C75.2724 11.0001 75.281 11.0001 75.2896 11.0001C75.2983 11.0001 75.3069 11.0001 75.3156 11.0001C75.3242 11.0001 75.3328 11.0001 75.3414 11.0001C75.35 11.0001 75.3586 11.0001 75.3671 11.0001C75.3757 11.0001 75.3843 11.0001 75.3928 11.0001C75.4014 11.0001 75.4099 11.0001 75.4184 11.0001C75.4269 11.0001 75.4355 11.0001 75.444 11.0001C75.4525 11.0001 75.461 11.0001 75.4694 11.0001C75.4779 11.0001 75.4864 11.0001 75.4948 11.0001C75.5033 11.0001 75.5117 11.0001 75.5201 11.0001C75.5286 11.0001 75.537 11.0001 75.5454 11.0001C75.5538 11.0001 75.5622 11.0001 75.5705 11.0001C75.5789 11.0001 75.5873 11.0001 75.5956 11.0001C75.604 11.0001 75.6123 11.0001 75.6207 11.0001C75.629 11.0001 75.6373 11.0001 75.6456 11.0001C75.6539 11.0001 75.6622 11.0001 75.6705 11.0001C75.6787 11.0001 75.687 11.0001 75.6953 11.0001C75.7035 11.0001 75.7117 11.0001 75.72 11.0001C75.7282 11.0001 75.7364 11.0001 75.7446 11.0001C75.7528 11.0001 75.761 11.0001 75.7691 11.0001C75.7773 11.0001 75.7855 11.0001 75.7936 11.0001C75.8018 11.0001 75.8099 11.0001 75.818 11.0001C75.8261 11.0001 75.8342 11.0001 75.8423 11.0001C75.8504 11.0001 75.8585 11.0001 75.8666 11.0001C75.8746 11.0001 75.8827 11.0001 75.8907 11.0001C75.8987 11.0001 75.9068 11.0001 75.9148 11.0001C75.9228 11.0001 75.9308 11.0001 75.9388 11.0001C75.9468 11.0001 75.9547 11.0001 75.9627 11.0001C75.9706 11.0001 75.9786 11.0001 75.9865 11.0001C75.9944 11.0001 76.0023 11.0001 76.0102 11.0001C76.0181 11.0001 76.026 11.0001 76.0339 11.0001C76.0418 11.0001 76.0496 11.0001 76.0575 11.0001C76.0653 11.0001 76.0732 11.0001 76.081 11.0001C76.0888 11.0001 76.0966 11.0001 76.1044 11.0001C76.1122 11.0001 76.1199 11.0001 76.1277 11.0001C76.1355 11.0001 76.1432 11.0001 76.1509 11.0001C76.1587 11.0001 76.1664 11.0001 76.1741 11.0001C76.1818 11.0001 76.1895 11.0001 76.1971 11.0001C76.2048 11.0001 76.2125 11.0001 76.2201 11.0001C76.2278 11.0001 76.2354 11.0001 76.243 11.0001C76.2506 11.0001 76.2582 11.0001 76.2658 11.0001C76.2734 11.0001 76.281 11.0001 76.2885 11.0001C76.2961 11.0001 76.3036 11.0001 76.3111 11.0001C76.3187 11.0001 76.3262 11.0001 76.3337 11.0001C76.3412 11.0001 76.3487 11.0001 76.3561 11.0001C76.3636 11.0001 76.371 11.0001 76.3785 11.0001C76.3859 11.0001 76.3933 11.0001 76.4007 11.0001C76.4081 11.0001 76.4155 11.0001 76.4229 11.0001C76.4303 11.0001 76.4377 11.0001 76.445 11.0001C76.4523 11.0001 76.4597 11.0001 76.467 11.0001C76.4743 11.0001 76.4816 11.0001 76.4889 11.0001C76.4962 11.0001 76.5034 11.0001 76.5107 11.0001C76.5179 11.0001 76.5252 11.0001 76.5324 11.0001C76.5396 11.0001 76.5468 11.0001 76.554 11.0001C76.5612 11.0001 76.5684 11.0001 76.5755 11.0001C76.5827 11.0001 76.5898 11.0001 76.597 11.0001C76.6041 11.0001 76.6112 11.0001 76.6183 11.0001C76.6254 11.0001 76.6325 11.0001 76.6395 11.0001C76.6466 11.0001 76.6537 11.0001 76.6607 11.0001C76.6677 11.0001 76.6747 11.0001 76.6817 11.0001C76.6887 11.0001 76.6957 11.0001 76.7027 11.0001C76.7097 11.0001 76.7166 11.0001 76.7235 11.0001C76.7305 11.0001 76.7374 11.0001 76.7443 11.0001C76.7512 11.0001 76.7581 11.0001 76.765 11.0001C76.7718 11.0001 76.7787 11.0001 76.7855 11.0001C76.7924 11.0001 76.7992 11.0001 76.806 11.0001C76.8128 11.0001 76.8196 11.0001 76.8263 11.0001C76.8331 11.0001 76.8399 11.0001 76.8466 11.0001C76.8533 11.0001 76.8601 11.0001 76.8668 11.0001C76.8735 11.0001 76.8801 11.0001 76.8868 11.0001C76.8935 11.0001 76.9001 11.0001 76.9068 11.0001C76.9134 11.0001 76.92 11.0001 76.9266 11.0001C76.9332 11.0001 76.9398 11.0001 76.9464 11.0001C76.9529 11.0001 76.9595 11.0001 76.966 11.0001C76.9726 11.0001 76.9791 11.0001 76.9856 11.0001C76.9921 11.0001 76.9986 11.0001 77.005 11.0001C77.0115 11.0001 77.0179 11.0001 77.0244 11.0001C77.0308 11.0001 77.0372 11.0001 77.0436 11.0001C77.05 11.0001 77.0564 11.0001 77.0627 11.0001C77.0691 11.0001 77.0754 11.0001 77.0818 11.0001C77.0881 11.0001 77.0944 11.0001 77.1007 11.0001C77.107 11.0001 77.1133 11.0001 77.1195 11.0001C77.1258 11.0001 77.132 11.0001 77.1382 11.0001C77.1444 11.0001 77.1506 11.0001 77.1568 11.0001C77.163 11.0001 77.1692 11.0001 77.1753 11.0001C77.1815 11.0001 77.1876 11.0001 77.1937 11.0001C77.1998 11.0001 77.2059 11.0001 77.212 11.0001C77.2181 11.0001 77.2241 11.0001 77.2302 11.0001C77.2362 11.0001 77.2422 11.0001 77.2482 11.0001C77.2542 11.0001 77.2602 11.0001 77.2662 11.0001C77.2721 11.0001 77.2781 11.0001 77.284 11.0001C77.2899 11.0001 77.2959 11.0001 77.3017 11.0001C77.3076 11.0001 77.3135 11.0001 77.3194 11.0001C77.3252 11.0001 77.3311 11.0001 77.3369 11.0001C77.3427 11.0001 77.3485 11.0001 77.3543 11.0001C77.36 11.0001 77.3658 11.0001 77.3716 11.0001C77.3773 11.0001 77.383 11.0001 77.3887 11.0001C77.3944 11.0001 77.4001 11.0001 77.4058 11.0001C77.4114 11.0001 77.4171 11.0001 77.4227 11.0001C77.4284 11.0001 77.434 11.0001 77.4396 11.0001C77.4451 11.0001 77.4507 11.0001 77.4563 11.0001C77.4618 11.0001 77.4674 11.0001 77.4729 11.0001C77.4784 11.0001 77.4839 11.0001 77.4894 11.0001C77.4948 11.0001 77.5003 11.0001 77.5057 11.0001C77.5112 11.0001 77.5166 11.0001 77.522 11.0001C77.5274 11.0001 77.5328 11.0001 77.5381 11.0001C77.5435 11.0001 77.5488 11.0001 77.5541 11.0001C77.5595 11.0001 77.5648 11.0001 77.57 11.0001C77.5753 11.0001 77.5806 11.0001 77.5858 11.0001C77.5911 11.0001 77.5963 11.0001 77.6015 11.0001C77.6067 11.0001 77.6119 11.0001 77.617 11.0001C77.6222 11.0001 77.6273 11.0001 77.6325 11.0001C77.6376 11.0001 77.6427 11.0001 77.6478 11.0001C77.6529 11.0001 77.6579 11.0001 77.663 11.0001C77.668 11.0001 77.673 11.0001 77.678 11.0001C77.683 11.0001 77.688 11.0001 77.693 11.0001C77.6979 11.0001 77.7029 11.0001 77.7078 11.0001C77.7127 11.0001 77.7176 11.0001 77.7225 11.0001C77.7274 11.0001 77.7322 11.0001 77.7371 11.0001C77.7419 11.0001 77.7467 11.0001 77.7515 11.0001C77.7563 11.0001 77.7611 11.0001 77.7659 11.0001C77.7706 11.0001 77.7754 11.0001 77.7801 11.0001C77.7848 11.0001 77.7895 11.0001 77.7942 11.0001C77.7988 11.0001 77.8035 11.0001 77.8081 11.0001C77.8128 11.0001 77.8174 11.0001 77.822 11.0001C77.8265 11.0001 77.8311 11.0001 77.8357 11.0001C77.8402 11.0001 77.8447 11.0001 77.8493 11.0001C77.8538 11.0001 77.8582 11.0001 77.8627 11.0001C77.8672 11.0001 77.8716 11.0001 77.876 11.0001C77.8805 11.0001 77.8849 11.0001 77.8892 11.0001C77.8936 11.0001 77.898 11.0001 77.9023 11.0001C77.9066 11.0001 77.911 11.0001 77.9153 11.0001C77.9195 11.0001 77.9238 11.0001 77.9281 11.0001C77.9323 11.0001 77.9366 11.0001 77.9408 11.0001C77.945 11.0001 77.9492 11.0001 77.9533 11.0001C77.9575 11.0001 77.9616 11.0001 77.9658 11.0001C77.9699 11.0001 77.974 11.0001 77.9781 11.0001C77.9821 11.0001 77.9862 11.0001 77.9902 11.0001C77.9942 11.0001 77.9983 11.0001 78.0023 11.0001C78.0062 11.0001 78.0102 11.0001 78.0142 11.0001C78.0181 11.0001 78.022 11.0001 78.0259 11.0001C78.0298 11.0001 78.0337 11.0001 78.0376 11.0001C78.0414 11.0001 78.0453 11.0001 78.0491 11.0001C78.0529 11.0001 78.0567 11.0001 78.0604 11.0001C78.0642 11.0001 78.068 11.0001 78.0717 11.0001C78.0754 11.0001 78.0791 11.0001 78.0828 11.0001C78.0865 11.0001 78.0901 11.0001 78.0938 11.0001C78.0974 11.0001 78.101 11.0001 78.1046 11.0001C78.1082 11.0001 78.1117 11.0001 78.1153 11.0001C78.1188 11.0001 78.1223 11.0001 78.1258 11.0001C78.1293 11.0001 78.1328 11.0001 78.1363 11.0001C78.1397 11.0001 78.1432 11.0001 78.1466 11.0001C78.15 11.0001 78.1533 11.0001 78.1567 11.0001C78.1601 11.0001 78.1634 11.0001 78.1667 11.0001C78.17 11.0001 78.1733 11.0001 78.1766 11.0001C78.1799 11.0001 78.1831 11.0001 78.1863 11.0001C78.1895 11.0001 78.1927 11.0001 78.1959 11.0001C78.1991 11.0001 78.2022 11.0001 78.2054 11.0001C78.2085 11.0001 78.2116 11.0001 78.2147 11.0001C78.2178 11.0001 78.2208 11.0001 78.2239 11.0001C78.2269 11.0001 78.2299 11.0001 78.2329 11.0001C78.2359 11.0001 78.2388 11.0001 78.2418 11.0001C78.2447 11.0001 78.2476 11.0001 78.2505 11.0001C78.2534 11.0001 78.2563 11.0001 78.2591 11.0001C78.262 11.0001 78.2648 11.0001 78.2676 11.0001C78.2704 11.0001 78.2732 11.0001 78.2759 11.0001C78.2787 11.0001 78.2814 11.0001 78.2841 11.0001C78.2868 11.0001 78.2895 11.0001 78.2921 11.0001C78.2948 11.0001 78.2974 11.0001 78.3 11.0001C78.3026 11.0001 78.3052 11.0001 78.3078 11.0001C78.3103 11.0001 78.3128 11.0001 78.3153 11.0001C78.3179 11.0001 78.3203 11.0001 78.3228 11.0001C78.3253 11.0001 78.3277 11.0001 78.3301 11.0001C78.3325 11.0001 78.3349 11.0001 78.3373 11.0001C78.3396 11.0001 78.342 11.0001 78.3443 11.0001C78.3466 11.0001 78.3489 11.0001 78.3511 11.0001C78.3534 11.0001 78.3556 11.0001 78.3578 11.0001C78.3601 11.0001 78.3622 11.0001 78.3644 11.0001C78.3666 11.0001 78.3687 11.0001 78.3708 11.0001C78.3729 11.0001 78.375 11.0001 78.3771 11.0001C78.3792 11.0001 78.3812 11.0001 78.3832 11.0001C78.3852 11.0001 78.3872 11.0001 78.3892 11.0001C78.3911 11.0001 78.3931 11.0001 78.395 11.0001C78.3969 11.0001 78.3988 11.0001 78.4006 11.0001C78.4025 11.0001 78.4043 11.0001 78.4062 11.0001C78.408 11.0001 78.4098 11.0001 78.4115 11.0001C78.4133 11.0001 78.415 11.0001 78.4167 11.0001C78.4184 11.0001 78.4201 11.0001 78.4218 11.0001C78.4234 11.0001 78.4251 11.0001 78.4267 11.0001C78.4283 11.0001 78.4299 11.0001 78.4314 11.0001C78.433 11.0001 78.4345 11.0001 78.436 11.0001C78.4375 11.0001 78.439 11.0001 78.4404 11.0001C78.4419 11.0001 78.4433 11.0001 78.4447 11.0001C78.4461 11.0001 78.4475 11.0001 78.4488 11.0001C78.4502 11.0001 78.4515 11.0001 78.4528 11.0001C78.4541 11.0001 78.4554 11.0001 78.4566 11.0001C78.4579 11.0001 78.4591 11.0001 78.4603 11.0001C78.4615 11.0001 78.4626 11.0001 78.4638 11.0001C78.4649 11.0001 78.466 11.0001 78.4671 11.0001C78.4682 11.0001 78.4693 11.0001 78.4703 11.0001C78.4713 11.0001 78.4723 11.0001 78.4733 11.0001C78.4743 11.0001 78.4753 11.0001 78.4762 11.0001C78.4771 11.0001 78.478 11.0001 78.4789 11.0001C78.4798 11.0001 78.4806 11.0001 78.4814 11.0001C78.4822 11.0001 78.483 11.0001 78.4838 11.0001C78.4846 11.0001 78.4853 11.0001 78.486 11.0001C78.4867 11.0001 78.4874 11.0001 78.4881 11.0001C78.4887 11.0001 78.4894 11.0001 78.49 11.0001C78.4906 11.0001 78.4911 11.0001 78.4917 11.0001C78.4923 11.0001 78.4928 11.0001 78.4933 11.0001C78.4938 11.0001 78.4942 11.0001 78.4947 11.0001C78.4951 11.0001 78.4955 11.0001 78.4959 11.0001C78.4963 11.0001 78.4967 11.0001 78.497 11.0001C78.4973 11.0001 78.4976 11.0001 78.4979 11.0001C78.4982 11.0001 78.4984 11.0001 78.4987 11.0001C78.4989 11.0001 78.4991 11.0001 78.4993 11.0001C78.4994 11.0001 78.4996 11.0001 78.4997 11.0001C78.4998 11.0001 78.4999 11.0001 78.4999 11.0001C78.5 11.0001 78.5 11.0001 78.5 9.00006C78.5 7.00006 78.5 7.00006 78.4999 7.00006C78.4999 7.00006 78.4998 7.00006 78.4997 7.00006C78.4996 7.00006 78.4994 7.00006 78.4993 7.00006C78.4991 7.00006 78.4989 7.00006 78.4987 7.00006C78.4984 7.00006 78.4982 7.00006 78.4979 7.00006C78.4976 7.00006 78.4973 7.00006 78.497 7.00006C78.4967 7.00006 78.4963 7.00006 78.4959 7.00006C78.4955 7.00006 78.4951 7.00006 78.4947 7.00006C78.4942 7.00006 78.4938 7.00006 78.4933 7.00006C78.4928 7.00006 78.4923 7.00006 78.4917 7.00006C78.4911 7.00006 78.4906 7.00006 78.49 7.00006C78.4894 7.00006 78.4887 7.00006 78.4881 7.00006C78.4874 7.00006 78.4867 7.00006 78.486 7.00006C78.4853 7.00006 78.4846 7.00006 78.4838 7.00006C78.483 7.00006 78.4822 7.00006 78.4814 7.00006C78.4806 7.00006 78.4798 7.00006 78.4789 7.00006C78.478 7.00006 78.4771 7.00006 78.4762 7.00006C78.4753 7.00006 78.4743 7.00006 78.4733 7.00006C78.4723 7.00006 78.4713 7.00006 78.4703 7.00006C78.4693 7.00006 78.4682 7.00006 78.4671 7.00006C78.466 7.00006 78.4649 7.00006 78.4638 7.00006C78.4626 7.00006 78.4615 7.00006 78.4603 7.00006C78.4591 7.00006 78.4579 7.00006 78.4566 7.00006C78.4554 7.00006 78.4541 7.00006 78.4528 7.00006C78.4515 7.00006 78.4502 7.00006 78.4488 7.00006C78.4475 7.00006 78.4461 7.00006 78.4447 7.00006C78.4433 7.00006 78.4419 7.00006 78.4404 7.00006C78.439 7.00006 78.4375 7.00006 78.436 7.00006C78.4345 7.00006 78.433 7.00006 78.4314 7.00006C78.4299 7.00006 78.4283 7.00006 78.4267 7.00006C78.4251 7.00006 78.4234 7.00006 78.4218 7.00006C78.4201 7.00006 78.4184 7.00006 78.4167 7.00006C78.415 7.00006 78.4133 7.00006 78.4115 7.00006C78.4098 7.00006 78.408 7.00006 78.4062 7.00006C78.4043 7.00006 78.4025 7.00006 78.4006 7.00006C78.3988 7.00006 78.3969 7.00006 78.395 7.00006C78.3931 7.00006 78.3911 7.00006 78.3892 7.00006C78.3872 7.00006 78.3852 7.00006 78.3832 7.00006C78.3812 7.00006 78.3792 7.00006 78.3771 7.00006C78.375 7.00006 78.3729 7.00006 78.3708 7.00006C78.3687 7.00006 78.3666 7.00006 78.3644 7.00006C78.3622 7.00006 78.3601 7.00006 78.3578 7.00006C78.3556 7.00006 78.3534 7.00006 78.3511 7.00006C78.3489 7.00006 78.3466 7.00006 78.3443 7.00006C78.342 7.00006 78.3396 7.00006 78.3373 7.00006C78.3349 7.00006 78.3325 7.00006 78.3301 7.00006C78.3277 7.00006 78.3253 7.00006 78.3228 7.00006C78.3203 7.00006 78.3179 7.00006 78.3153 7.00006C78.3128 7.00006 78.3103 7.00006 78.3078 7.00006C78.3052 7.00006 78.3026 7.00006 78.3 7.00006C78.2974 7.00006 78.2948 7.00006 78.2921 7.00006C78.2895 7.00006 78.2868 7.00006 78.2841 7.00006C78.2814 7.00006 78.2787 7.00006 78.2759 7.00006C78.2732 7.00006 78.2704 7.00006 78.2676 7.00006C78.2648 7.00006 78.262 7.00006 78.2591 7.00006C78.2563 7.00006 78.2534 7.00006 78.2505 7.00006C78.2476 7.00006 78.2447 7.00006 78.2418 7.00006C78.2388 7.00006 78.2359 7.00006 78.2329 7.00006C78.2299 7.00006 78.2269 7.00006 78.2239 7.00006C78.2208 7.00006 78.2178 7.00006 78.2147 7.00006C78.2116 7.00006 78.2085 7.00006 78.2054 7.00006C78.2022 7.00006 78.1991 7.00006 78.1959 7.00006C78.1927 7.00006 78.1895 7.00006 78.1863 7.00006C78.1831 7.00006 78.1799 7.00006 78.1766 7.00006C78.1733 7.00006 78.17 7.00006 78.1667 7.00006C78.1634 7.00006 78.1601 7.00006 78.1567 7.00006C78.1533 7.00006 78.15 7.00006 78.1466 7.00006C78.1432 7.00006 78.1397 7.00006 78.1363 7.00006C78.1328 7.00006 78.1293 7.00006 78.1258 7.00006C78.1223 7.00006 78.1188 7.00006 78.1153 7.00006C78.1117 7.00006 78.1082 7.00006 78.1046 7.00006C78.101 7.00006 78.0974 7.00006 78.0938 7.00006C78.0901 7.00006 78.0865 7.00006 78.0828 7.00006C78.0791 7.00006 78.0754 7.00006 78.0717 7.00006C78.068 7.00006 78.0642 7.00006 78.0604 7.00006C78.0567 7.00006 78.0529 7.00006 78.0491 7.00006C78.0453 7.00006 78.0414 7.00006 78.0376 7.00006C78.0337 7.00006 78.0298 7.00006 78.0259 7.00006C78.022 7.00006 78.0181 7.00006 78.0142 7.00006C78.0102 7.00006 78.0062 7.00006 78.0023 7.00006C77.9983 7.00006 77.9942 7.00006 77.9902 7.00006C77.9862 7.00006 77.9821 7.00006 77.9781 7.00006C77.974 7.00006 77.9699 7.00006 77.9658 7.00006C77.9616 7.00006 77.9575 7.00006 77.9533 7.00006C77.9492 7.00006 77.945 7.00006 77.9408 7.00006C77.9366 7.00006 77.9323 7.00006 77.9281 7.00006C77.9238 7.00006 77.9195 7.00006 77.9153 7.00006C77.911 7.00006 77.9066 7.00006 77.9023 7.00006C77.898 7.00006 77.8936 7.00006 77.8892 7.00006C77.8849 7.00006 77.8805 7.00006 77.876 7.00006C77.8716 7.00006 77.8672 7.00006 77.8627 7.00006C77.8582 7.00006 77.8538 7.00006 77.8493 7.00006C77.8447 7.00006 77.8402 7.00006 77.8357 7.00006C77.8311 7.00006 77.8265 7.00006 77.822 7.00006C77.8174 7.00006 77.8128 7.00006 77.8081 7.00006C77.8035 7.00006 77.7988 7.00006 77.7942 7.00006C77.7895 7.00006 77.7848 7.00006 77.7801 7.00006C77.7754 7.00006 77.7706 7.00006 77.7659 7.00006C77.7611 7.00006 77.7563 7.00006 77.7515 7.00006C77.7467 7.00006 77.7419 7.00006 77.7371 7.00006C77.7322 7.00006 77.7274 7.00006 77.7225 7.00006C77.7176 7.00006 77.7127 7.00006 77.7078 7.00006C77.7029 7.00006 77.6979 7.00006 77.693 7.00006C77.688 7.00006 77.683 7.00006 77.678 7.00006C77.673 7.00006 77.668 7.00006 77.663 7.00006C77.6579 7.00006 77.6529 7.00006 77.6478 7.00006C77.6427 7.00006 77.6376 7.00006 77.6325 7.00006C77.6273 7.00006 77.6222 7.00006 77.617 7.00006C77.6119 7.00006 77.6067 7.00006 77.6015 7.00006C77.5963 7.00006 77.5911 7.00006 77.5858 7.00006C77.5806 7.00006 77.5753 7.00006 77.57 7.00006C77.5648 7.00006 77.5595 7.00006 77.5541 7.00006C77.5488 7.00006 77.5435 7.00006 77.5381 7.00006C77.5328 7.00006 77.5274 7.00006 77.522 7.00006C77.5166 7.00006 77.5112 7.00006 77.5057 7.00006C77.5003 7.00006 77.4948 7.00006 77.4894 7.00006C77.4839 7.00006 77.4784 7.00006 77.4729 7.00006C77.4674 7.00006 77.4618 7.00006 77.4563 7.00006C77.4507 7.00006 77.4451 7.00006 77.4396 7.00006C77.434 7.00006 77.4284 7.00006 77.4227 7.00006C77.4171 7.00006 77.4114 7.00006 77.4058 7.00006C77.4001 7.00006 77.3944 7.00006 77.3887 7.00006C77.383 7.00006 77.3773 7.00006 77.3716 7.00006C77.3658 7.00006 77.36 7.00006 77.3543 7.00006C77.3485 7.00006 77.3427 7.00006 77.3369 7.00006C77.3311 7.00006 77.3252 7.00006 77.3194 7.00006C77.3135 7.00006 77.3076 7.00006 77.3017 7.00006C77.2959 7.00006 77.2899 7.00006 77.284 7.00006C77.2781 7.00006 77.2721 7.00006 77.2662 7.00006C77.2602 7.00006 77.2542 7.00006 77.2482 7.00006C77.2422 7.00006 77.2362 7.00006 77.2302 7.00006C77.2241 7.00006 77.2181 7.00006 77.212 7.00006C77.2059 7.00006 77.1998 7.00006 77.1937 7.00006C77.1876 7.00006 77.1815 7.00006 77.1753 7.00006C77.1692 7.00006 77.163 7.00006 77.1568 7.00006C77.1506 7.00006 77.1444 7.00006 77.1382 7.00006C77.132 7.00006 77.1258 7.00006 77.1195 7.00006C77.1133 7.00006 77.107 7.00006 77.1007 7.00006C77.0944 7.00006 77.0881 7.00006 77.0818 7.00006C77.0754 7.00006 77.0691 7.00006 77.0627 7.00006C77.0564 7.00006 77.05 7.00006 77.0436 7.00006C77.0372 7.00006 77.0308 7.00006 77.0244 7.00006C77.0179 7.00006 77.0115 7.00006 77.005 7.00006C76.9986 7.00006 76.9921 7.00006 76.9856 7.00006C76.9791 7.00006 76.9726 7.00006 76.966 7.00006C76.9595 7.00006 76.9529 7.00006 76.9464 7.00006C76.9398 7.00006 76.9332 7.00006 76.9266 7.00006C76.92 7.00006 76.9134 7.00006 76.9068 7.00006C76.9001 7.00006 76.8935 7.00006 76.8868 7.00006C76.8801 7.00006 76.8735 7.00006 76.8668 7.00006C76.8601 7.00006 76.8533 7.00006 76.8466 7.00006C76.8399 7.00006 76.8331 7.00006 76.8263 7.00006C76.8196 7.00006 76.8128 7.00006 76.806 7.00006C76.7992 7.00006 76.7924 7.00006 76.7855 7.00006C76.7787 7.00006 76.7718 7.00006 76.765 7.00006C76.7581 7.00006 76.7512 7.00006 76.7443 7.00006C76.7374 7.00006 76.7305 7.00006 76.7235 7.00006C76.7166 7.00006 76.7097 7.00006 76.7027 7.00006C76.6957 7.00006 76.6887 7.00006 76.6817 7.00006C76.6747 7.00006 76.6677 7.00006 76.6607 7.00006C76.6537 7.00006 76.6466 7.00006 76.6395 7.00006C76.6325 7.00006 76.6254 7.00006 76.6183 7.00006C76.6112 7.00006 76.6041 7.00006 76.597 7.00006C76.5898 7.00006 76.5827 7.00006 76.5755 7.00006C76.5684 7.00006 76.5612 7.00006 76.554 7.00006C76.5468 7.00006 76.5396 7.00006 76.5324 7.00006C76.5252 7.00006 76.5179 7.00006 76.5107 7.00006C76.5034 7.00006 76.4962 7.00006 76.4889 7.00006C76.4816 7.00006 76.4743 7.00006 76.467 7.00006C76.4597 7.00006 76.4523 7.00006 76.445 7.00006C76.4377 7.00006 76.4303 7.00006 76.4229 7.00006C76.4155 7.00006 76.4081 7.00006 76.4007 7.00006C76.3933 7.00006 76.3859 7.00006 76.3785 7.00006C76.371 7.00006 76.3636 7.00006 76.3561 7.00006C76.3487 7.00006 76.3412 7.00006 76.3337 7.00006C76.3262 7.00006 76.3187 7.00006 76.3111 7.00006C76.3036 7.00006 76.2961 7.00006 76.2885 7.00006C76.281 7.00006 76.2734 7.00006 76.2658 7.00006C76.2582 7.00006 76.2506 7.00006 76.243 7.00006C76.2354 7.00006 76.2278 7.00006 76.2201 7.00006C76.2125 7.00006 76.2048 7.00006 76.1971 7.00006C76.1895 7.00006 76.1818 7.00006 76.1741 7.00006C76.1664 7.00006 76.1587 7.00006 76.1509 7.00006C76.1432 7.00006 76.1355 7.00006 76.1277 7.00006C76.1199 7.00006 76.1122 7.00006 76.1044 7.00006C76.0966 7.00006 76.0888 7.00006 76.081 7.00006C76.0732 7.00006 76.0653 7.00006 76.0575 7.00006C76.0496 7.00006 76.0418 7.00006 76.0339 7.00006C76.026 7.00006 76.0181 7.00006 76.0102 7.00006C76.0023 7.00006 75.9944 7.00006 75.9865 7.00006C75.9786 7.00006 75.9706 7.00006 75.9627 7.00006C75.9547 7.00006 75.9468 7.00006 75.9388 7.00006C75.9308 7.00006 75.9228 7.00006 75.9148 7.00006C75.9068 7.00006 75.8987 7.00006 75.8907 7.00006C75.8827 7.00006 75.8746 7.00006 75.8666 7.00006C75.8585 7.00006 75.8504 7.00006 75.8423 7.00006C75.8342 7.00006 75.8261 7.00006 75.818 7.00006C75.8099 7.00006 75.8018 7.00006 75.7936 7.00006C75.7855 7.00006 75.7773 7.00006 75.7691 7.00006C75.761 7.00006 75.7528 7.00006 75.7446 7.00006C75.7364 7.00006 75.7282 7.00006 75.72 7.00006C75.7117 7.00006 75.7035 7.00006 75.6953 7.00006C75.687 7.00006 75.6787 7.00006 75.6705 7.00006C75.6622 7.00006 75.6539 7.00006 75.6456 7.00006C75.6373 7.00006 75.629 7.00006 75.6207 7.00006C75.6123 7.00006 75.604 7.00006 75.5956 7.00006C75.5873 7.00006 75.5789 7.00006 75.5705 7.00006C75.5622 7.00006 75.5538 7.00006 75.5454 7.00006C75.537 7.00006 75.5286 7.00006 75.5201 7.00006C75.5117 7.00006 75.5033 7.00006 75.4948 7.00006C75.4864 7.00006 75.4779 7.00006 75.4694 7.00006C75.461 7.00006 75.4525 7.00006 75.444 7.00006C75.4355 7.00006 75.4269 7.00006 75.4184 7.00006C75.4099 7.00006 75.4014 7.00006 75.3928 7.00006C75.3843 7.00006 75.3757 7.00006 75.3671 7.00006C75.3586 7.00006 75.35 7.00006 75.3414 7.00006C75.3328 7.00006 75.3242 7.00006 75.3156 7.00006C75.3069 7.00006 75.2983 7.00006 75.2896 7.00006C75.281 7.00006 75.2724 7.00006 75.2637 7.00006C75.255 7.00006 75.2463 7.00006 75.2376 7.00006C75.229 7.00006 75.2203 7.00006 75.2115 7.00006C75.2028 7.00006 75.1941 7.00006 75.1854 7.00006C75.1766 7.00006 75.1679 7.00006 75.1591 7.00006C75.1504 7.00006 75.1416 7.00006 75.1328 7.00006C75.124 7.00006 75.1152 7.00006 75.1064 7.00006C75.0976 7.00006 75.0888 7.00006 75.08 7.00006C75.0711 7.00006 75.0623 7.00006 75.0535 7.00006C75.0446 7.00006 75.0357 7.00006 75.0269 7.00006C75.018 7.00006 75.0091 7.00006 75.0002 7.00006C74.9913 7.00006 74.9824 7.00006 74.9735 7.00006C74.9646 7.00006 74.9557 7.00006 74.9467 7.00006C74.9378 7.00006 74.9288 7.00006 74.9199 7.00006C74.9109 7.00006 74.902 7.00006 74.893 7.00006C74.884 7.00006 74.875 7.00006 74.866 7.00006C74.857 7.00006 74.848 7.00006 74.839 7.00006C74.8299 7.00006 74.8209 7.00006 74.8119 7.00006C74.8028 7.00006 74.7938 7.00006 74.7847 7.00006C74.7757 7.00006 74.7666 7.00006 74.7575 7.00006C74.7484 7.00006 74.7393 7.00006 74.7302 7.00006C74.7211 7.00006 74.712 7.00006 74.7029 7.00006C74.6937 7.00006 74.6846 7.00006 74.6755 7.00006C74.6663 7.00006 74.6572 7.00006 74.648 7.00006C74.6388 7.00006 74.6296 7.00006 74.6205 7.00006C74.6113 7.00006 74.6021 7.00006 74.5929 7.00006C74.5837 7.00006 74.5744 7.00006 74.5652 7.00006C74.556 7.00006 74.5468 7.00006 74.5375 7.00006C74.5283 7.00006 74.519 7.00006 74.5098 7.00006C74.5005 7.00006 74.4912 7.00006 74.4819 7.00006C74.4727 7.00006 74.4634 7.00006 74.4541 7.00006C74.4448 7.00006 74.4354 7.00006 74.4261 7.00006C74.4168 7.00006 74.4075 7.00006 74.3981 7.00006C74.3888 7.00006 74.3794 7.00006 74.3701 7.00006C74.3607 7.00006 74.3514 7.00006 74.342 7.00006C74.3326 7.00006 74.3232 7.00006 74.3138 7.00006C74.3044 7.00006 74.295 7.00006 74.2856 7.00006C74.2762 7.00006 74.2668 7.00006 74.2574 7.00006C74.2479 7.00006 74.2385 7.00006 74.229 7.00006C74.2196 7.00006 74.2101 7.00006 74.2007 7.00006C74.1912 7.00006 74.1817 7.00006 74.1722 7.00006C74.1628 7.00006 74.1533 7.00006 74.1438 7.00006C74.1343 7.00006 74.1248 7.00006 74.1152 7.00006C74.1057 7.00006 74.0962 7.00006 74.0867 7.00006C74.0771 7.00006 74.0676 7.00006 74.058 7.00006C74.0485 7.00006 74.0389 7.00006 74.0294 7.00006C74.0198 7.00006 74.0102 7.00006 74.0006 7.00006C73.991 7.00006 73.9814 7.00006 73.9718 7.00006C73.9622 7.00006 73.9526 7.00006 73.943 7.00006C73.9334 7.00006 73.9238 7.00006 73.9141 7.00006C73.9045 7.00006 73.8949 7.00006 73.8852 7.00006C73.8755 7.00006 73.8659 7.00006 73.8562 7.00006C73.8466 7.00006 73.8369 7.00006 73.8272 7.00006C73.8175 7.00006 73.8078 7.00006 73.7981 7.00006C73.7884 7.00006 73.7787 7.00006 73.769 7.00006C73.7593 7.00006 73.7496 7.00006 73.7399 7.00006C73.7301 7.00006 73.7204 7.00006 73.7106 7.00006C73.7009 7.00006 73.6912 7.00006 73.6814 7.00006C73.6716 7.00006 73.6619 7.00006 73.6521 7.00006C73.6423 7.00006 73.6325 7.00006 73.6228 7.00006C73.613 7.00006 73.6032 7.00006 73.5934 7.00006C73.5836 7.00006 73.5738 7.00006 73.5639 7.00006C73.5541 7.00006 73.5443 7.00006 73.5345 7.00006C73.5246 7.00006 73.5148 7.00006 73.505 7.00006C73.4951 7.00006 73.4853 7.00006 73.4754 7.00006C73.4655 7.00006 73.4557 7.00006 73.4458 7.00006C73.4359 7.00006 73.426 7.00006 73.4162 7.00006C73.4063 7.00006 73.3964 7.00006 73.3865 7.00006C73.3766 7.00006 73.3667 7.00006 73.3568 7.00006C73.3468 7.00006 73.3369 7.00006 73.327 7.00006C73.3171 7.00006 73.3071 7.00006 73.2972 7.00006C73.2873 7.00006 73.2773 7.00006 73.2674 7.00006C73.2574 7.00006 73.2474 7.00006 73.2375 7.00006C73.2275 7.00006 73.2175 7.00006 73.2076 7.00006C73.1976 7.00006 73.1876 7.00006 73.1776 7.00006C73.1676 7.00006 73.1576 7.00006 73.1476 7.00006C73.1376 7.00006 73.1276 7.00006 73.1176 7.00006C73.1076 7.00006 73.0976 7.00006 73.0875 7.00006C73.0775 7.00006 73.0675 7.00006 73.0574 7.00006C73.0474 7.00006 73.0374 7.00006 73.0273 7.00006C73.0173 7.00006 73.0072 7.00006 72.9971 7.00006C72.9871 7.00006 72.977 7.00006 72.9669 7.00006C72.9569 7.00006 72.9468 7.00006 72.9367 7.00006C72.9266 7.00006 72.9165 7.00006 72.9064 7.00006C72.8963 7.00006 72.8862 7.00006 72.8761 7.00006C72.866 7.00006 72.8559 7.00006 72.8458 7.00006C72.8357 7.00006 72.8255 7.00006 72.8154 7.00006C72.8053 7.00006 72.7951 7.00006 72.785 7.00006C72.7749 7.00006 72.7647 7.00006 72.7546 7.00006C72.7444 7.00006 72.7343 7.00006 72.7241 7.00006C72.7139 7.00006 72.7038 7.00006 72.6936 7.00006C72.6834 7.00006 72.6733 7.00006 72.6631 7.00006C72.6529 7.00006 72.6427 7.00006 72.6325 7.00006C72.6223 7.00006 72.6121 7.00006 72.6019 7.00006C72.5918 7.00006 72.5815 7.00006 72.5713 7.00006C72.5611 7.00006 72.5509 7.00006 72.5407 7.00006C72.5305 7.00006 72.5203 7.00006 72.51 7.00006C72.4998 7.00006 72.4896 7.00006 72.4793 7.00006C72.4691 7.00006 72.4589 7.00006 72.4486 7.00006C72.4384 7.00006 72.4281 7.00006 72.4179 7.00006C72.4076 7.00006 72.3973 7.00006 72.3871 7.00006C72.3768 7.00006 72.3666 7.00006 72.3563 7.00006C72.346 7.00006 72.3357 7.00006 72.3255 7.00006C72.3152 7.00006 72.3049 7.00006 72.2946 7.00006C72.2843 7.00006 72.274 7.00006 72.2637 7.00006C72.2534 7.00006 72.2431 7.00006 72.2328 7.00006C72.2225 7.00006 72.2122 7.00006 72.2019 7.00006C72.1916 7.00006 72.1813 7.00006 72.171 7.00006C72.1606 7.00006 72.1503 7.00006 72.14 7.00006C72.1297 7.00006 72.1193 7.00006 72.109 7.00006C72.0987 7.00006 72.0883 7.00006 72.078 7.00006C72.0676 7.00006 72.0573 7.00006 72.047 7.00006C72.0366 7.00006 72.0263 7.00006 72.0159 7.00006C72.0055 7.00006 71.9952 7.00006 71.9848 7.00006C71.9745 7.00006 71.9641 7.00006 71.9537 7.00006C71.9434 7.00006 71.933 7.00006 71.9226 7.00006C71.9122 7.00006 71.9019 7.00006 71.8915 7.00006C71.8811 7.00006 71.8707 7.00006 71.8603 7.00006C71.85 7.00006 71.8396 7.00006 71.8292 7.00006C71.8188 7.00006 71.8084 7.00006 71.798 7.00006C71.7876 7.00006 71.7772 7.00006 71.7668 7.00006C71.7564 7.00006 71.746 7.00006 71.7356 7.00006C71.7252 7.00006 71.7147 7.00006 71.7043 7.00006C71.6939 7.00006 71.6835 7.00006 71.6731 7.00006C71.6627 7.00006 71.6522 7.00006 71.6418 7.00006C71.6314 7.00006 71.6209 7.00006 71.6105 7.00006C71.6001 7.00006 71.5897 7.00006 71.5792 7.00006C71.5688 7.00006 71.5583 7.00006 71.5479 7.00006C71.5375 7.00006 71.527 7.00006 71.5166 7.00006C71.5061 7.00006 71.4957 7.00006 71.4852 7.00006C71.4748 7.00006 71.4643 7.00006 71.4539 7.00006C71.4434 7.00006 71.433 7.00006 71.4225 7.00006C71.4121 7.00006 71.4016 7.00006 71.3912 7.00006C71.3807 7.00006 71.3702 7.00006 71.3598 7.00006C71.3493 7.00006 71.3388 7.00006 71.3284 7.00006C71.3179 7.00006 71.3074 7.00006 71.297 7.00006C71.2865 7.00006 71.276 7.00006 71.2655 7.00006C71.2551 7.00006 71.2446 7.00006 71.2341 7.00006C71.2236 7.00006 71.2132 7.00006 71.2027 7.00006C71.1922 7.00006 71.1817 7.00006 71.1712 7.00006C71.1608 7.00006 71.1503 7.00006 71.1398 7.00006C71.1293 7.00006 71.1188 7.00006 71.1083 7.00006C71.0978 7.00006 71.0873 7.00006 71.0769 7.00006C71.0664 7.00006 71.0559 7.00006 71.0454 7.00006C71.0349 7.00006 71.0244 7.00006 71.0139 7.00006C71.0034 7.00006 70.9929 7.00006 70.9824 7.00006C70.9719 7.00006 70.9614 7.00006 70.9509 7.00006C70.9404 7.00006 70.9299 7.00006 70.9194 7.00006C70.9089 7.00006 70.8984 7.00006 70.8879 7.00006C70.8774 7.00006 70.8669 7.00006 70.8564 7.00006C70.8459 7.00006 70.8354 7.00006 70.8249 7.00006C70.8144 7.00006 70.8039 7.00006 70.7934 7.00006C70.7829 7.00006 70.7724 7.00006 70.7618 7.00006C70.7513 7.00006 70.7408 7.00006 70.7303 7.00006C70.7198 7.00006 70.7093 7.00006 70.6988 7.00006C70.6883 7.00006 70.6778 7.00006 70.6673 7.00006C70.6568 7.00006 70.6463 7.00006 70.6357 7.00006C70.6252 7.00006 70.6147 7.00006 70.6042 7.00006C70.5937 7.00006 70.5832 7.00006 70.5727 7.00006C70.5622 7.00006 70.5517 7.00006 70.5412 7.00006C70.5307 7.00006 70.5201 7.00006 70.5096 7.00006C70.4991 7.00006 70.4886 7.00006 70.4781 7.00006C70.4676 7.00006 70.4571 7.00006 70.4466 7.00006C70.4361 7.00006 70.4256 7.00006 70.4151 7.00006C70.4046 7.00006 70.3941 7.00006 70.3835 7.00006C70.373 7.00006 70.3625 7.00006 70.352 7.00006C70.3415 7.00006 70.331 7.00006 70.3205 7.00006C70.31 7.00006 70.2995 7.00006 70.289 7.00006C70.2785 7.00006 70.268 7.00006 70.2575 7.00006C70.247 7.00006 70.2365 7.00006 70.226 7.00006C70.2155 7.00006 70.205 7.00006 70.1945 7.00006C70.184 7.00006 70.1735 7.00006 70.163 7.00006C70.1525 7.00006 70.142 7.00006 70.1315 7.00006C70.121 7.00006 70.1105 7.00006 70.1 7.00006C70.0896 7.00006 70.0791 7.00006 70.0686 7.00006C70.0581 7.00006 70.0476 7.00006 70.0371 7.00006C70.0266 7.00006 70.0161 7.00006 70.0057 7.00006C69.9952 7.00006 69.9847 7.00006 69.9742 7.00006C69.9637 7.00006 69.9532 7.00006 69.9428 7.00006C69.9323 7.00006 69.9218 7.00006 69.9113 7.00006C69.9009 7.00006 69.8904 7.00006 69.8799 7.00006C69.8694 7.00006 69.859 7.00006 69.8485 7.00006C69.838 7.00006 69.8276 7.00006 69.8171 7.00006C69.8066 7.00006 69.7962 7.00006 69.7857 7.00006C69.7752 7.00006 69.7648 7.00006 69.7543 7.00006C69.7439 7.00006 69.7334 7.00006 69.723 7.00006C69.7125 7.00006 69.702 7.00006 69.6916 7.00006C69.6812 7.00006 69.6707 7.00006 69.6603 7.00006C69.6498 7.00006 69.6394 7.00006 69.6289 7.00006C69.6185 7.00006 69.608 7.00006 69.5976 7.00006C69.5872 7.00006 69.5767 7.00006 69.5663 7.00006C69.5559 7.00006 69.5454 7.00006 69.535 7.00006C69.5246 7.00006 69.5142 7.00006 69.5037 7.00006C69.4933 7.00006 69.4829 7.00006 69.4725 7.00006C69.4621 7.00006 69.4517 7.00006 69.4412 7.00006C69.4308 7.00006 69.4204 7.00006 69.41 7.00006C69.3996 7.00006 69.3892 7.00006 69.3788 7.00006C69.3684 7.00006 69.358 7.00006 69.3476 7.00006C69.3372 7.00006 69.3268 7.00006 69.3164 7.00006C69.3061 7.00006 69.2957 7.00006 69.2853 7.00006C69.2749 7.00006 69.2645 7.00006 69.2542 7.00006C69.2438 7.00006 69.2334 7.00006 69.223 7.00006C69.2127 7.00006 69.2023 7.00006 69.1919 7.00006C69.1816 7.00006 69.1712 7.00006 69.1608 7.00006C69.1505 7.00006 69.1401 7.00006 69.1298 7.00006C69.1194 7.00006 69.1091 7.00006 69.0987 7.00006C69.0884 7.00006 69.0781 7.00006 69.0677 7.00006C69.0574 7.00006 69.0471 7.00006 69.0367 7.00006C69.0264 7.00006 69.0161 7.00006 69.0058 7.00006C68.9954 7.00006 68.9851 7.00006 68.9748 7.00006C68.9645 7.00006 68.9542 7.00006 68.9439 7.00006C68.9336 7.00006 68.9233 7.00006 68.913 7.00006C68.9027 7.00006 68.8924 7.00006 68.8821 7.00006C68.8718 7.00006 68.8615 7.00006 68.8512 7.00006C68.8409 7.00006 68.8307 7.00006 68.8204 7.00006C68.8101 7.00006 68.7998 7.00006 68.7896 7.00006C68.7793 7.00006 68.769 7.00006 68.7588 7.00006C68.7485 7.00006 68.7383 7.00006 68.728 7.00006C68.7178 7.00006 68.7075 7.00006 68.6973 7.00006C68.687 7.00006 68.6768 7.00006 68.6666 7.00006C68.6564 7.00006 68.6461 7.00006 68.6359 7.00006C68.6257 7.00006 68.6155 7.00006 68.6053 7.00006C68.595 7.00006 68.5848 7.00006 68.5746 7.00006C68.5644 7.00006 68.5542 7.00006 68.544 7.00006C68.5339 7.00006 68.5237 7.00006 68.5135 7.00006C68.5033 7.00006 68.4931 7.00006 68.4829 7.00006C68.4728 7.00006 68.4626 7.00006 68.4524 7.00006C68.4423 7.00006 68.4321 7.00006 68.422 7.00006C68.4118 7.00006 68.4017 7.00006 68.3915 7.00006C68.3814 7.00006 68.3712 7.00006 68.3611 7.00006C68.351 7.00006 68.3408 7.00006 68.3307 7.00006C68.3206 7.00006 68.3105 7.00006 68.3004 7.00006C68.2903 7.00006 68.2802 7.00006 68.2701 7.00006C68.26 7.00006 68.2499 7.00006 68.2398 7.00006C68.2297 7.00006 68.2196 7.00006 68.2095 7.00006C68.1994 7.00006 68.1894 7.00006 68.1793 7.00006C68.1692 7.00006 68.1592 7.00006 68.1491 7.00006C68.1391 7.00006 68.129 7.00006 68.119 7.00006C68.1089 7.00006 68.0989 7.00006 68.0889 7.00006C68.0788 7.00006 68.0688 7.00006 68.0588 7.00006C68.0488 7.00006 68.0388 7.00006 68.0287 7.00006C68.0187 7.00006 68.0087 7.00006 67.9987 7.00006C67.9887 7.00006 67.9788 7.00006 67.9688 7.00006C67.9588 7.00006 67.9488 7.00006 67.9389 7.00006C67.9289 7.00006 67.9189 7.00006 67.909 7.00006C67.899 7.00006 67.8891 7.00006 67.8791 7.00006C67.8692 7.00006 67.8592 7.00006 67.8493 7.00006C67.8394 7.00006 67.8294 7.00006 67.8195 7.00006C67.8096 7.00006 67.7997 7.00006 67.7898 7.00006C67.7799 7.00006 67.77 7.00006 67.7601 7.00006C67.7502 7.00006 67.7403 7.00006 67.7304 7.00006C67.7206 7.00006 67.7107 7.00006 67.7008 7.00006C67.691 7.00006 67.6811 7.00006 67.6712 7.00006C67.6614 7.00006 67.6516 7.00006 67.6417 7.00006C67.6319 7.00006 67.6221 7.00006 67.6122 7.00006C67.6024 7.00006 67.5926 7.00006 67.5828 7.00006C67.573 7.00006 67.5632 7.00006 67.5534 7.00006C67.5436 7.00006 67.5338 7.00006 67.524 7.00006C67.5143 7.00006 67.5045 7.00006 67.4947 7.00006C67.4849 7.00006 67.4752 7.00006 67.4654 7.00006C67.4557 7.00006 67.446 7.00006 67.4362 7.00006C67.4265 7.00006 67.4168 7.00006 67.407 7.00006C67.3973 7.00006 67.3876 7.00006 67.3779 7.00006C67.3682 7.00006 67.3585 7.00006 67.3488 7.00006C67.3391 7.00006 67.3295 7.00006 67.3198 7.00006C67.3101 7.00006 67.3004 7.00006 67.2908 7.00006C67.2811 7.00006 67.2715 7.00006 67.2618 7.00006C67.2522 7.00006 67.2426 7.00006 67.2329 7.00006C67.2233 7.00006 67.2137 7.00006 67.2041 7.00006C67.1945 7.00006 67.1849 7.00006 67.1753 7.00006C67.1657 7.00006 67.1561 7.00006 67.1466 7.00006C67.137 7.00006 67.1274 7.00006 67.1179 7.00006C67.1083 7.00006 67.0987 7.00006 67.0892 7.00006C67.0797 7.00006 67.0701 7.00006 67.0606 7.00006C67.0511 7.00006 67.0416 7.00006 67.0321 7.00006C67.0226 7.00006 67.0131 7.00006 67.0036 7.00006C66.9941 7.00006 66.9846 7.00006 66.9751 7.00006C66.9657 7.00006 66.9562 7.00006 66.9467 7.00006C66.9373 7.00006 66.9278 7.00006 66.9184 7.00006C66.909 7.00006 66.8995 7.00006 66.8901 7.00006C66.8807 7.00006 66.8713 7.00006 66.8619 7.00006C66.8525 7.00006 66.8431 7.00006 66.8337 7.00006C66.8243 7.00006 66.8149 7.00006 66.8056 7.00006C66.7962 7.00006 66.7869 7.00006 66.7775 7.00006C66.7682 7.00006 66.7588 7.00006 66.7495 7.00006C66.7402 7.00006 66.7309 7.00006 66.7216 7.00006C66.7122 7.00006 66.7029 7.00006 66.6937 7.00006C66.6844 7.00006 66.6751 7.00006 66.6658 7.00006C66.6565 7.00006 66.6473 7.00006 66.638 7.00006C66.6288 7.00006 66.6195 7.00006 66.6103 7.00006C66.6011 7.00006 66.5919 7.00006 66.5826 7.00006C66.5734 7.00006 66.5642 7.00006 66.555 7.00006C66.5458 7.00006 66.5367 7.00006 66.5275 7.00006C66.5183 7.00006 66.5092 7.00006 66.5 7.00006V11.0001ZM78.5 11.0001H1527.5V7.00006H78.5V11.0001ZM78.5 9.00006C78.5 11.0001 78.5 11.0001 78.5 11.0001C78.5 9.00006 78.5 7.00006 78.5 7.00006V11.0001C78.5 11.0001 78.5 9.00006 78.5 7.00006C78.5 7.00006 78.5 7.00006 78.5 9.00006Z" fill="#FCE307"/>
</svg>
