<svg width="271" height="72" viewBox="0 0 271 72" fill="none" xmlns="http://www.w3.org/2000/svg">
<circle cx="31.8153" cy="39.2664" r="23.3549" stroke="#F91A0E" stroke-width="16"/>
<circle cx="157.234" cy="39.2664" r="23.3549" stroke="#F91A0E" stroke-width="16"/>
<path d="M125.819 51.4301C123.005 58.1161 117.959 63.6195 111.543 67.0026C105.126 70.3857 97.7342 71.4392 90.6276 69.9835C83.5211 68.5278 77.1391 64.6531 72.5691 59.0195C67.9991 53.3859 65.5239 46.342 65.5652 39.088C65.6065 31.834 68.1617 24.8187 72.7955 19.2375C77.4293 13.6563 83.855 9.85442 90.9776 8.47972C98.1003 7.10503 105.479 8.24255 111.857 11.6985C118.235 15.1544 123.218 20.7149 125.956 27.4325L113.623 32.4589C112.048 28.5946 109.181 25.396 105.512 23.4079C101.844 21.4199 97.5988 20.7656 93.5015 21.5564C89.4042 22.3471 85.7078 24.5342 83.0422 27.7448C80.3766 30.9554 78.9067 34.9909 78.8829 39.1638C78.8592 43.3366 80.2831 47.3887 82.912 50.6294C85.5408 53.8701 89.2121 56.0991 93.3001 56.9365C97.3882 57.7738 101.64 57.1678 105.331 55.2217C109.023 53.2756 111.925 50.1097 113.544 46.2636L125.819 51.4301Z" fill="#F91A0E"/>
<path d="M221.469 30.3387V0.290283L253.912 71.7097H239.323L221.469 30.3387Z" fill="#F91A0E"/>
<path d="M221.469 30.3387V0.290283L189.025 71.7097H203.614L221.469 30.3387Z" fill="#F91A0E"/>
<rect x="192.292" y="36.2178" width="59.2259" height="12.1936" fill="#F91A0E"/>
<path d="M269.46 16.8385C269.46 21.0964 266.009 24.5482 261.751 24.5482C257.493 24.5482 254.041 21.0964 254.041 16.8385C254.041 12.5805 257.493 9.12878 261.751 9.12878C266.009 9.12878 269.46 12.5805 269.46 16.8385Z" stroke="#F91A0E" stroke-width="2"/>
<path d="M258.68 17.1717H263.04C263.379 17.1717 263.681 17.0897 263.945 16.9256C264.208 16.7615 264.411 16.5301 264.551 16.2313C264.698 15.9266 264.771 15.5779 264.771 15.1854C264.771 14.7928 264.698 14.4471 264.551 14.1483C264.411 13.8436 264.208 13.6092 263.945 13.4451C263.687 13.2811 263.385 13.199 263.04 13.199H258.68V11.494H262.969C263.708 11.494 264.355 11.6463 264.912 11.951C265.474 12.2557 265.908 12.6893 266.212 13.2518C266.523 13.8084 266.678 14.4529 266.678 15.1854C266.678 15.9178 266.523 16.5652 266.212 17.1277C265.902 17.6844 265.465 18.1151 264.903 18.4197C264.346 18.7244 263.702 18.8768 262.969 18.8768H258.68V17.1717ZM257.898 11.494H259.691V24.282H257.898V11.494ZM262.161 18.4813L263.945 18.077L266.625 23.375L265.087 24.282L262.161 18.4813Z" fill="#F91A0E"/>
</svg>
