<svg width="100" height="205" viewBox="0 0 100 205" fill="none" xmlns="http://www.w3.org/2000/svg">
<path d="M9.82045 143.54H22.5149V146.965H13.6644V152.08H22.3909V155.397H13.6644V160.574H22.5149V164H9.82045V143.54ZM48.3922 143.54H52.2672V156.157C52.2672 157.841 51.9314 159.298 51.2597 160.528C50.5984 161.758 49.6632 162.708 48.4542 163.38C47.2555 164.041 45.8399 164.372 44.2072 164.372C42.5642 164.372 41.133 164.041 39.9137 163.38C38.7047 162.708 37.7644 161.758 37.0927 160.528C36.4314 159.298 36.1007 157.841 36.1007 156.157V143.54H39.9602V155.955C39.9602 156.989 40.1359 157.872 40.4872 158.606C40.8489 159.329 41.35 159.882 41.9907 160.264C42.6314 160.636 43.3702 160.822 44.2072 160.822C45.0339 160.822 45.7624 160.636 46.3927 160.264C47.023 159.882 47.5139 159.329 47.8652 158.606C48.2165 157.872 48.3922 156.989 48.3922 155.955V143.54ZM69.2818 147.12L69.5453 147.167V164H65.6858V143.54H71.0178L80.1938 160.342L79.9303 160.404V143.54H83.7898V164H78.4268L69.2818 147.12ZM18.8584 189.738C18.8584 191.123 18.6156 192.311 18.1299 193.303C17.6442 194.295 16.9416 195.054 16.0219 195.581C15.1022 196.108 13.9966 196.372 12.7049 196.372C11.7439 196.372 10.9172 196.248 10.2249 196C9.5429 195.742 9.0004 195.463 8.5974 195.163C8.20474 194.863 7.9619 194.641 7.8689 194.496L9.3724 191.148C9.4964 191.324 9.67724 191.531 9.9149 191.768C10.1526 191.996 10.4574 192.197 10.8294 192.373C11.2014 192.538 11.6457 192.621 12.1624 192.621C12.7617 192.621 13.2681 192.492 13.6814 192.233C14.1051 191.975 14.4254 191.582 14.6424 191.055C14.8697 190.518 14.9834 189.852 14.9834 189.056V175.54H18.8584V189.738ZM35.3766 185.754C35.3766 187.056 35.6452 188.234 36.1826 189.288C36.7302 190.342 37.4794 191.179 38.4301 191.799C39.3807 192.409 40.4812 192.714 41.7316 192.714C42.9819 192.714 44.0824 192.409 45.0331 191.799C45.9941 191.179 46.7432 190.342 47.2806 189.288C47.8179 188.234 48.0866 187.056 48.0866 185.754C48.0866 184.452 47.8179 183.28 47.2806 182.236C46.7432 181.182 45.9941 180.345 45.0331 179.725C44.0824 179.105 42.9819 178.795 41.7316 178.795C40.4812 178.795 39.3807 179.105 38.4301 179.725C37.4794 180.345 36.7302 181.182 36.1826 182.236C35.6452 183.28 35.3766 184.452 35.3766 185.754ZM31.3466 185.754C31.3466 184.266 31.6049 182.882 32.1216 181.6C32.6486 180.309 33.3822 179.182 34.3226 178.221C35.2629 177.26 36.3634 176.511 37.6241 175.974C38.8951 175.437 40.2642 175.168 41.7316 175.168C43.2196 175.168 44.5939 175.437 45.8546 175.974C47.1152 176.511 48.2106 177.26 49.1406 178.221C50.0809 179.182 50.8094 180.309 51.3261 181.6C51.8427 182.882 52.1011 184.266 52.1011 185.754C52.1011 187.253 51.8479 188.648 51.3416 189.939C50.8352 191.221 50.1171 192.347 49.1871 193.318C48.2571 194.279 47.1617 195.029 45.9011 195.566C44.6404 196.103 43.2506 196.372 41.7316 196.372C40.1919 196.372 38.7866 196.103 37.5156 195.566C36.2549 195.029 35.1596 194.279 34.2296 193.318C33.3099 192.347 32.5969 191.221 32.0906 189.939C31.5946 188.648 31.3466 187.253 31.3466 185.754ZM68.0622 185.754C68.0622 187.056 68.3309 188.234 68.8682 189.288C69.4159 190.342 70.165 191.179 71.1157 191.799C72.0664 192.409 73.1669 192.714 74.4172 192.714C75.6675 192.714 76.768 192.409 77.7187 191.799C78.6797 191.179 79.4289 190.342 79.9662 189.288C80.5035 188.234 80.7722 187.056 80.7722 185.754C80.7722 184.452 80.5035 183.28 79.9662 182.236C79.4289 181.182 78.6797 180.345 77.7187 179.725C76.768 179.105 75.6675 178.795 74.4172 178.795C73.1669 178.795 72.0664 179.105 71.1157 179.725C70.165 180.345 69.4159 181.182 68.8682 182.236C68.3309 183.28 68.0622 184.452 68.0622 185.754ZM64.0322 185.754C64.0322 184.266 64.2905 182.882 64.8072 181.6C65.3342 180.309 66.0679 179.182 67.0082 178.221C67.9485 177.26 69.049 176.511 70.3097 175.974C71.5807 175.437 72.9499 175.168 74.4172 175.168C75.9052 175.168 77.2795 175.437 78.5402 175.974C79.8009 176.511 80.8962 177.26 81.8262 178.221C82.7665 179.182 83.495 180.309 84.0117 181.6C84.5284 182.882 84.7867 184.266 84.7867 185.754C84.7867 187.253 84.5335 188.648 84.0272 189.939C83.5209 191.221 82.8027 192.347 81.8727 193.318C80.9427 194.279 79.8474 195.029 78.5867 195.566C77.326 196.103 75.9362 196.372 74.4172 196.372C72.8775 196.372 71.4722 196.103 70.2012 195.566C68.9405 195.029 67.8452 194.279 66.9152 193.318C65.9955 192.347 65.2825 191.221 64.7762 189.939C64.2802 188.648 64.0322 187.253 64.0322 185.754Z" fill="#2A2A2A"/>
<path d="M19.5877 42.1313L54.5522 72.0953M54.5522 33.5701V95.9531C54.5522 110.2 43.0025 121.75 28.7552 121.75V121.75C14.5079 121.75 2.95825 110.2 2.95825 95.9531V44.75C2.95825 21.554 21.7623 2.75 44.9583 2.75V2.75C68.1542 2.75 86.9583 21.554 86.9583 44.75V94.4607C86.9583 109.532 74.7404 121.75 59.6689 121.75V121.75" stroke="#2A2A2A" stroke-width="4.5"/>
<circle cx="84.0417" cy="108.432" r="12.75" stroke="#2A2A2A" stroke-width="4.5"/>
<circle cx="84.0417" cy="108.432" r="12.75" stroke="#FCE307" stroke-width="4.5"/>
</svg>
