<svg width="141" height="141" viewBox="0 0 141 141" fill="none" xmlns="http://www.w3.org/2000/svg">
<circle cx="70.4604" cy="70.7788" r="70" fill="#FF0000"/>
<path fill-rule="evenodd" clip-rule="evenodd" d="M80.5988 49.8914C78.6377 49.0963 75.396 48.3556 72.4215 49.3492C70.845 49.8758 69.3608 50.8912 68.3076 52.561C67.2774 54.1945 66.7868 56.2501 66.7868 58.672V63.1618H64.7461V68.6042H66.7868V92.4148H72.2292V68.6042H76.7193V63.1618H72.2292V58.672C72.2292 56.9576 72.5777 55.9927 72.9109 55.4645C73.2211 54.9726 73.6247 54.6853 74.1459 54.5112C75.3665 54.1034 77.159 54.3695 78.5541 54.935L80.5988 49.8914ZM99.3051 87.2443C105.297 87.2443 110.158 82.4025 110.19 76.4178V76.3013C110.158 70.3166 105.297 65.4748 99.3051 65.4748C93.2936 65.4748 88.4204 70.348 88.4204 76.3595C88.4204 82.371 93.2936 87.2443 99.3051 87.2443ZM99.3051 92.6867C107.91 92.6867 114.961 86.0294 115.587 77.5842H115.632V76.4309L115.632 76.3595L115.632 76.2882V50.7804H110.19V64.1896C107.301 61.6044 103.487 60.0324 99.3051 60.0324C90.2879 60.0324 82.978 67.3423 82.978 76.3595C82.978 85.3768 90.2879 92.6867 99.3051 92.6867ZM52.5005 66.5632C52.5005 72.5747 47.6273 77.448 41.6158 77.448C35.6043 77.448 30.731 72.5747 30.731 66.5632C30.731 60.5517 35.6043 55.6784 41.6158 55.6784C47.6273 55.6784 52.5005 60.5517 52.5005 66.5632ZM30.731 78.733C33.6196 81.3183 37.4341 82.8904 41.6158 82.8904C50.633 82.8904 57.9429 75.5804 57.9429 66.5632C57.9429 57.5459 50.633 50.236 41.6158 50.236C32.8722 50.236 25.7339 57.1089 25.3086 65.747H25.2886V66.5632V92.5508H30.731V78.733Z" fill="white"/>
</svg>
