<svg width="175" height="75" viewBox="0 0 175 75" fill="none" xmlns="http://www.w3.org/2000/svg">
<path fill-rule="evenodd" clip-rule="evenodd" d="M174.46 4.05171C174.46 1.81401 172.646 0 170.408 0C168.171 0 166.357 1.81401 166.357 4.05171V32.4137C166.357 34.6514 168.171 36.4654 170.408 36.4654C172.646 36.4654 174.46 34.6514 174.46 32.4137V4.05171ZM146.098 4.27667C146.098 2.03898 147.912 0.224965 150.15 0.224965H156.228C159.46 0.224965 162.08 2.84521 162.08 6.07744V32.6386C162.08 34.8763 160.266 36.6904 158.028 36.6904C155.791 36.6904 153.977 34.8763 153.977 32.6386V8.32838H150.15C147.912 8.32838 146.098 6.51437 146.098 4.27667ZM6.9895 0.45006C4.7518 0.45006 2.93779 2.26407 2.93779 4.50177C2.93779 6.73947 4.7518 8.55348 6.9895 8.55348H18.6944V15.4503C18.2273 18.399 17.1007 21.771 13.5866 22.9424C11.4637 23.65 10.3164 25.9446 11.024 28.0674C11.7317 30.1903 14.0262 31.3376 16.1491 30.63C24.6171 27.8073 26.2712 19.6023 26.7445 16.4152C26.7818 16.1642 26.7979 15.9227 26.7979 15.691V5.40215C26.7979 2.66719 24.5807 0.45006 21.8458 0.45006H6.9895ZM32.8749 0.45006C30.6372 0.45006 28.8232 2.26407 28.8232 4.50177C28.8232 6.73947 30.6372 8.55348 32.8749 8.55348H44.5798V15.4503C44.1127 18.399 42.9861 21.771 39.4719 22.9424C37.3491 23.65 36.2018 25.9446 36.9094 28.0674C37.617 30.1903 39.9116 31.3376 42.0345 30.63C50.5025 27.8073 52.1565 19.6023 52.6299 16.4152C52.6672 16.1642 52.6832 15.9227 52.6832 15.691V5.40215C52.6832 2.66719 50.4661 0.45006 47.7311 0.45006H32.8749ZM29.4987 25.8859C31.7364 25.8859 33.5504 27.6999 33.5504 29.9376V41.1846C39.6955 40.8497 46.2814 39.6817 52.8114 37.1832C54.9013 36.3836 57.2438 37.4296 58.0434 39.5196C58.843 41.6095 57.797 43.952 55.7071 44.7516C33.7695 53.1451 11.5791 48.2873 2.95988 44.7095C0.893165 43.8517 -0.0867907 41.4808 0.771093 39.4141C1.62898 37.3474 3.99984 36.3674 6.06655 37.2253C9.79444 38.7727 16.843 40.6763 25.447 41.1691V29.9376C25.447 27.6999 27.261 25.8859 29.4987 25.8859ZM59.6619 5.62725C59.6619 2.89228 61.879 0.675155 64.614 0.675155H79.6954C81.9331 0.675155 83.7471 2.48917 83.7471 4.72687C83.7471 6.96456 81.9331 8.77858 79.6954 8.77858H67.7653V24.9291H85.0976V14.3957C85.0976 12.158 86.9117 10.344 89.1494 10.344C91.3871 10.344 93.2011 12.158 93.2011 14.3957V28.0805C93.2011 30.8154 90.9839 33.0326 88.249 33.0326H64.614C61.879 33.0326 59.6619 30.8154 59.6619 28.0805V5.62725ZM144.158 33.8208L132.242 11.5797L121.012 33.7388C120 35.7349 117.562 36.5329 115.566 35.5214C113.57 34.5099 112.772 32.0718 113.784 30.0758L126.966 4.06419C129.105 -0.157238 135.11 -0.225713 137.345 3.94579L151.301 29.9938C152.358 31.9662 151.615 34.4219 149.643 35.4787C147.671 36.5355 145.215 35.7932 144.158 33.8208ZM99.8971 6.30253C99.8971 3.0703 102.517 0.45006 105.75 0.45006H113.009C115.247 0.45006 117.061 2.26407 117.061 4.50177C117.061 6.73947 115.247 8.55348 113.009 8.55348H108.001V32.3573C108.001 34.595 106.187 36.409 103.949 36.409C101.711 36.409 99.8971 34.595 99.8971 32.3573V6.30253ZM98.1524 55.9361C98.1524 61.5925 93.5669 66.1779 87.9105 66.1779C82.2541 66.1779 77.6687 61.5925 77.6687 55.9361C77.6687 50.2797 82.2541 45.6942 87.9105 45.6942C93.5669 45.6942 98.1524 50.2797 98.1524 55.9361ZM106.256 55.9361C106.256 66.0678 98.0423 74.2813 87.9105 74.2813C77.7787 74.2813 69.5653 66.0678 69.5653 55.9361C69.5653 45.8043 77.7787 37.5908 87.9105 37.5908C98.0423 37.5908 106.256 45.8043 106.256 55.9361Z" fill="white"/>
<ellipse cx="90.049" cy="4.2768" rx="4.2768" ry="4.2768" fill="#FFA200"/>
</svg>
