<svg width="360" height="90" viewBox="0 0 360 90" fill="none" xmlns="http://www.w3.org/2000/svg">
<path d="M5.62768 3.4447H0V39.5878H5.62768V3.4447Z" fill="#EC6D65"/>
<path d="M15.2781 39.5883V0.989258L42.5178 28.5693V3.44516H48.1668V41.7834L20.9058 14.2903V39.5883H15.2781Z" fill="#EC6D65"/>
<path d="M74.6789 34.6761H60.2781V39.588H74.6789V34.6761Z" fill="#EC6D65"/>
<path d="M96.5911 8.57385V39.5878H90.9634V8.57385H82.3828V3.4447H105.172V8.57385H96.5911Z" fill="#EC6D65"/>
<path d="M113.238 21.419C113.238 25.418 114.629 28.6998 117.411 31.2643C120.171 33.8289 123.359 35.1329 126.976 35.1329C130.891 35.1329 134.208 33.8289 136.883 31.1991C139.579 28.5476 140.927 25.3093 140.927 21.5059C140.927 17.659 139.6 14.4207 136.926 11.8127C134.272 9.18292 130.998 7.8789 127.104 7.8789C123.21 7.8789 119.936 9.18292 117.261 11.8127C114.586 14.4207 113.238 17.6156 113.238 21.419ZM107.546 21.3538C107.546 16.2681 109.472 11.8996 113.324 8.24837C117.154 4.59711 121.776 2.77148 127.168 2.77148C132.496 2.77148 137.054 4.61885 140.863 8.29184C144.693 11.9648 146.598 16.3985 146.598 21.5711C146.598 26.7655 144.672 31.1774 140.841 34.7852C136.99 38.4147 132.325 40.2403 126.89 40.2403C122.075 40.2403 117.732 38.632 113.901 35.3937C109.665 31.8294 107.546 27.1349 107.546 21.3538Z" fill="#EC6D65"/>
<path d="M157.574 3.4447V25.2001C157.574 28.308 158.109 30.5683 159.136 32.0027C160.698 34.0674 162.902 35.1106 165.748 35.1106C168.594 35.1106 170.82 34.0674 172.382 32.0027C173.43 30.6118 173.944 28.3515 173.944 25.2001V3.4447H179.593V26.6997C179.593 30.5031 178.373 33.6545 175.912 36.1104C173.152 38.8488 169.771 40.2398 165.748 40.2398C161.726 40.2398 158.345 38.8706 155.606 36.1104C153.166 33.6545 151.925 30.5248 151.925 26.6997V3.4447H157.574Z" fill="#EC6D65"/>
<path d="M214.387 5.37997V11.8566C211.134 9.22683 207.753 7.90108 204.265 7.90108C200.435 7.90108 197.183 9.22683 194.572 11.9001C191.919 14.5516 190.614 17.7899 190.614 21.6368C190.614 25.4184 191.94 28.635 194.572 31.243C197.225 33.8511 200.457 35.1551 204.308 35.1551C206.298 35.1551 207.989 34.8508 209.358 34.2206C210.128 33.9163 210.942 33.4816 211.755 32.96C212.589 32.4384 213.467 31.7864 214.387 31.0474V37.6327C211.156 39.3932 207.775 40.2842 204.223 40.2842C198.895 40.2842 194.337 38.4804 190.549 34.8726C186.783 31.243 184.922 26.8528 184.922 21.7237C184.922 17.1162 186.505 13.0085 189.651 9.42244C193.524 5.0105 198.531 2.79367 204.672 2.79367C208.01 2.7502 211.263 3.61955 214.387 5.37997Z" fill="#EC6D65"/>
<path d="M226.477 17.5716H242.589V3.4447H248.238V39.5878H242.589V22.7007H226.477V39.5878H220.849V3.4447H226.477V17.5716Z" fill="#EC6D65"/>
<path d="M281.94 3.4447V34.4587H292.938V39.5878H276.312V3.4447H281.94Z" fill="#727171"/>
<path d="M320.82 25.6788L315.278 13.3993L309.479 25.6788H320.82ZM323.11 30.8079H307.125L302.953 39.5883H296.876L315.364 1.18494L333.188 39.5883H327.026L323.11 30.8079Z" fill="#727171"/>
<path d="M343.502 34.4587H346.99C349.536 34.4587 351.398 33.9805 352.596 33.0025C353.859 31.9593 354.479 30.6335 354.479 29.0252C354.479 27.4604 353.88 26.1564 352.66 25.0914C351.484 24.0482 349.387 23.5266 346.348 23.5266H343.502V34.4587ZM343.502 18.9626H345.257C347.354 18.9626 348.894 18.5061 349.857 17.6151C350.842 16.724 351.312 15.3982 351.312 13.6378C351.312 11.9426 350.82 10.6385 349.815 9.7692C348.809 8.89986 347.354 8.44345 345.449 8.44345H343.459V18.9626H343.502ZM337.853 39.5878V3.4447H343.459C345.963 3.4447 347.953 3.64031 349.429 4.00978C350.927 4.37925 352.19 5.00953 353.217 5.90061C354.265 6.81342 355.1 7.96531 355.699 9.33453C356.32 10.7255 356.64 12.1164 356.64 13.5509C356.64 16.1372 355.613 18.3323 353.581 20.1362C355.571 20.7882 357.133 21.9401 358.267 23.5701C359.422 25.2001 360 27.0909 360 29.2426C360 32.068 358.973 34.4587 356.897 36.4147C355.656 37.61 354.265 38.4577 352.703 38.9141C351.013 39.3705 348.894 39.5878 346.348 39.5878H337.853Z" fill="#727171"/>
<path d="M113.241 82.3854H110.925V89.3207H124.856V87.2471H113.241V82.3854Z" fill="#F97971"/>
<path d="M124.376 68.0618H122.094V83.8144H124.376V68.0618Z" fill="#F97971"/>
<path d="M112.95 78.0121C111.046 78.0121 109.725 76.6006 109.725 74.5967C109.725 72.5231 111.046 71.0594 112.95 71.0594C114.872 71.0594 116.21 72.5057 116.21 74.5967C116.21 76.6006 114.872 78.0121 112.95 78.0121ZM118.577 74.5967C118.577 71.3904 116.141 68.9857 112.899 68.9857C109.69 68.9857 107.271 71.3904 107.271 74.5967C107.271 77.7507 109.69 80.1206 112.899 80.1206C116.141 80.1032 118.577 77.7333 118.577 74.5967Z" fill="#F97971"/>
<path d="M164.597 76.0252H160.892V78.064H164.597V89.7391H166.896V68.0618H164.597V76.0252Z" fill="#F97971"/>
<path d="M155.352 82.3503H152.538V78.0462H159.195V76.0074H152.538V71.8253H159.709V69.7865H150.239V84.3716H155.06C157.788 84.3716 160.516 84.058 162.729 83.4829L162.849 83.4481V81.4616L162.66 81.5139C160.207 82.0715 157.753 82.3503 155.352 82.3503Z" fill="#F97971"/>
<path d="M201.663 78.6393C202.881 76.6702 203.602 74.6314 203.79 72.5578L203.808 72.3661H203.619C201.457 72.4184 199.433 72.4184 197.46 72.4184H193.514V74.4746H196.139C197.751 74.4746 199.416 74.4746 201.063 74.4049C200.239 77.8551 196.602 81.8978 192.484 83.8843L192.279 83.9889L193.874 85.6617L193.977 85.6094C196.413 84.3025 198.592 82.5251 200.291 80.4864C201.389 82.0198 202.778 83.4313 204.631 84.9299L204.751 85.017L206.433 83.2222L206.278 83.1176C204.237 81.6713 202.761 80.2424 201.663 78.6393Z" fill="#F97971"/>
<path d="M202.333 68.8113H195.488V70.9198H202.333V68.8113Z" fill="#F97971"/>
<path d="M210.276 68.0618H207.978V89.7391H210.276V68.0618Z" fill="#F97971"/>
<path d="M245.163 78.7604V76.8088L244.974 76.8436C243.413 77.1573 241.046 77.5929 238.335 77.5929H238.009V75.2056H243.43V69.0544H235.658V71.0584H241.2V73.2714H235.71V79.5794H238.06C240.565 79.5794 243.465 79.1612 245.043 78.7604H245.163Z" fill="#EC6D65"/>
<path d="M245.163 78.7604V76.8088L244.974 76.8436C243.413 77.1573 241.046 77.5929 238.335 77.5929H238.009V75.2056H243.43V69.0544H235.658V71.0584H241.2V73.2714H235.71V79.5794H238.06C240.565 79.5794 243.465 79.1612 245.043 78.7604H245.163Z" fill="#898989"/>
<path d="M241.165 85.5392H250.464V87.6825H241.165V85.5392ZM250.447 83.5527H241.165V81.2699H238.866V89.7561H252.729V81.1479H250.447V83.5527Z" fill="#EC6D65"/>
<path d="M241.165 85.5392H250.464V87.6825H241.165V85.5392ZM250.447 83.5527H241.165V81.2699H238.866V89.7561H252.729V81.1479H250.447V83.5527Z" fill="#898989"/>
<path d="M250.499 68.0618V72.5924H248.114V68.3057H245.918V79.9285H248.114V74.6486H250.499V79.9285H252.729V68.0618H250.499Z" fill="#EC6D65"/>
<path d="M250.499 68.0618V72.5924H248.114V68.3057H245.918V79.9285H248.114V74.6486H250.499V79.9285H252.729V68.0618H250.499Z" fill="#898989"/>
</svg>
