<svg width="520" height="84" viewBox="0 0 520 84" fill="none" xmlns="http://www.w3.org/2000/svg">
<path fill-rule="evenodd" clip-rule="evenodd" d="M10.4541 49.5332H0V55.8417H3.06639L12.5724 82.9229L20.3228 82.9004L20.2249 82.5834L29.0329 55.8418H32.2631V49.5333H24.1522V50.1993L17.0086 72.1672L10.7273 51.8249L10.4541 51.8978V49.5332Z" fill="#014051"/>
<path fill-rule="evenodd" clip-rule="evenodd" d="M10.4541 49.5332H0V55.8417H3.06639L12.5724 82.9229L20.3228 82.9004L20.2249 82.5834L29.0329 55.8418H32.2631V49.5333H24.1522V50.1993L17.0086 72.1672L10.7273 51.8249L10.4541 51.8978V49.5332Z" fill="white"/>
<path fill-rule="evenodd" clip-rule="evenodd" d="M39.0186 49.5332H54.1589V55.8417H50.4639L50.4639 76.5694H54.159V82.8778H39.0187V76.5694H42.7134L42.7134 55.8417H39.0186V49.5332Z" fill="#014051"/>
<path fill-rule="evenodd" clip-rule="evenodd" d="M39.0186 49.5332H54.1589V55.8417H50.4639L50.4639 76.5694H54.159V82.8778H39.0187V76.5694H42.7134L42.7134 55.8417H39.0186V49.5332Z" fill="white"/>
<path fill-rule="evenodd" clip-rule="evenodd" d="M60.9497 49.5332H76.0901V55.8417H72.3954L72.3954 76.5694H81.4069V73.5051H87.7154V82.6974H87.6256V82.8778H60.9497V76.5694H64.645L64.645 55.8417H60.9497V49.5332Z" fill="#014051"/>
<path fill-rule="evenodd" clip-rule="evenodd" d="M60.9497 49.5332H76.0901V55.8417H72.3954L72.3954 76.5694H81.4069V73.5051H87.7154V82.6974H87.6256V82.8778H60.9497V76.5694H64.645L64.645 55.8417H60.9497V49.5332Z" fill="white"/>
<path fill-rule="evenodd" clip-rule="evenodd" d="M93.875 49.5332H109.015V55.8417H105.321L105.321 76.5694H114.333V73.5051H120.641V82.6974H120.551V82.8778H93.8751V76.5694H97.5709L97.5709 55.8417H93.875V49.5332Z" fill="#014051"/>
<path fill-rule="evenodd" clip-rule="evenodd" d="M93.875 49.5332H109.015V55.8417H105.321L105.321 76.5694H114.333V73.5051H120.641V82.6974H120.551V82.8778H93.8751V76.5694H97.5709L97.5709 55.8417H93.875V49.5332Z" fill="white"/>
<path fill-rule="evenodd" clip-rule="evenodd" d="M148.52 49.5333H134.732V55.8417H138.042L130.324 76.5693H126.26V82.8778H134.732V82.7784L134.943 82.857L137.653 75.5777H149.76L152.47 82.8567L152.666 82.7839V82.8778H162.309V76.5693H158.773L148.61 49.77V49.5333H148.52L148.52 49.533L148.52 49.5333ZM143.707 59.3205L140.002 69.2692H147.411L143.707 59.3205Z" fill="#014051"/>
<path fill-rule="evenodd" clip-rule="evenodd" d="M148.52 49.5333H134.732V55.8417H138.042L130.324 76.5693H126.26V82.8778H134.732V82.7784L134.943 82.857L137.653 75.5777H149.76L152.47 82.8567L152.666 82.7839V82.8778H162.309V76.5693H158.773L148.61 49.77V49.5333H148.52L148.52 49.533L148.52 49.5333ZM143.707 59.3205L140.002 69.2692H147.411L143.707 59.3205Z" fill="white"/>
<path fill-rule="evenodd" clip-rule="evenodd" d="M302.532 49.5333H316.32L316.321 49.533L316.321 49.5333H316.41V49.7693L326.574 76.5695H330.11V82.878H320.467V82.7838L320.271 82.8567L317.561 75.578H305.453L302.743 82.857L302.532 82.7786V82.878H294.061V76.5695H298.124L305.842 55.8417H302.532V49.5333ZM307.802 69.2695L311.507 59.3198L315.212 69.2695H307.802Z" fill="#014051"/>
<path fill-rule="evenodd" clip-rule="evenodd" d="M302.532 49.5333H316.32L316.321 49.533L316.321 49.5333H316.41V49.7693L326.574 76.5695H330.11V82.878H320.467V82.7838L320.271 82.8567L317.561 75.578H305.453L302.743 82.857L302.532 82.7786V82.878H294.061V76.5695H298.124L305.842 55.8417H302.532V49.5333ZM307.802 69.2695L311.507 59.3198L315.212 69.2695H307.802Z" fill="white"/>
<path fill-rule="evenodd" clip-rule="evenodd" d="M505.135 63.238L498.063 48.959L497.996 48.9923H488.457V55.3008H492.258L499.677 70.28L499.677 76.5693H496.207V82.8778H511.168V76.5693H507.698V71.8385L516.344 55.3008H520V48.9923H512.43V49.2857L505.135 63.238Z" fill="#014051"/>
<path fill-rule="evenodd" clip-rule="evenodd" d="M505.135 63.238L498.063 48.959L497.996 48.9923H488.457V55.3008H492.258L499.677 70.28L499.677 76.5693H496.207V82.8778H511.168V76.5693H507.698V71.8385L516.344 55.3008H520V48.9923H512.43V49.2857L505.135 63.238Z" fill="white"/>
<path fill-rule="evenodd" clip-rule="evenodd" d="M261.253 49.3525H287.568V54.6702H287.568V58.3652H281.44V55.661H272.608V62.3299H280.358V68.6384H272.608V76.5694H275.852V82.8778H261.433V76.5694H264.767L264.767 55.661H261.253V49.3525Z" fill="#014051"/>
<path fill-rule="evenodd" clip-rule="evenodd" d="M261.253 49.3525H287.568V54.6702H287.568V58.3652H281.44V55.661H272.608V62.3299H280.358V68.6384H272.608V76.5694H275.852V82.8778H261.433V76.5694H264.767L264.767 55.661H261.253V49.3525Z" fill="white"/>
<path fill-rule="evenodd" clip-rule="evenodd" d="M374.453 48.9924H402.571V55.3009H402.571V58.3652H396.443V55.3009H392.297L392.297 76.5694H395.901V82.8779H380.941V76.5694H384.457L384.457 55.3009H380.581V58.3652H374.453L374.453 54.6702H374.453V48.9924Z" fill="#014051"/>
<path fill-rule="evenodd" clip-rule="evenodd" d="M374.453 48.9924H402.571V55.3009H402.571V58.3652H396.443V55.3009H392.297L392.297 76.5694H395.901V82.8779H380.941V76.5694H384.457L384.457 55.3009H380.581V58.3652H374.453L374.453 54.6702H374.453V48.9924Z" fill="white"/>
<path fill-rule="evenodd" clip-rule="evenodd" d="M234.963 49.5332H208.647V55.8417H212.161L212.161 76.5694H208.647V82.8778H234.963V76.5694H234.963V73.5952H228.835V76.5694H220.002V68.8194H227.753V62.5109H220.002V55.8417H228.835V58.3652H234.963V55.8417H234.963V49.5332Z" fill="#014051"/>
<path fill-rule="evenodd" clip-rule="evenodd" d="M234.963 49.5332H208.647V55.8417H212.161L212.161 76.5694H208.647V82.8778H234.963V76.5694H234.963V73.5952H228.835V76.5694H220.002V68.8194H227.753V62.5109H220.002V55.8417H228.835V58.3652H234.963V55.8417H234.963V49.5332Z" fill="white"/>
<path fill-rule="evenodd" clip-rule="evenodd" d="M194.467 51.4589C190.197 49.199 180.435 46.4574 173.378 52.5966C166.169 58.8691 167.61 69.5093 169.233 74.0454C170.404 76.749 174.928 82.4267 183.652 83.5081C188.797 84.1459 192.627 82.1612 195.188 79.7353V82.9679H201.496V71.162H201.496V64.8535H185.094V71.162H193.572C192.853 73.534 190.366 77.1996 184.643 77.1996C178.299 77.1996 176.112 70.8311 175.811 67.6468C175.391 64.4325 176.226 57.373 182.931 54.8496C187.91 53.6329 192.394 56.1113 193.746 58.4544H194.467V58.455H200.775V49.6231L194.467 49.6231V51.4589Z" fill="#014051"/>
<path fill-rule="evenodd" clip-rule="evenodd" d="M194.467 51.4589C190.197 49.199 180.435 46.4574 173.378 52.5966C166.169 58.8691 167.61 69.5093 169.233 74.0454C170.404 76.749 174.928 82.4267 183.652 83.5081C188.797 84.1459 192.627 82.1612 195.188 79.7353V82.9679H201.496V71.162H201.496V64.8535H185.094V71.162H193.572C192.853 73.534 190.366 77.1996 184.643 77.1996C178.299 77.1996 176.112 70.8311 175.811 67.6468C175.391 64.4325 176.226 57.373 182.931 54.8496C187.91 53.6329 192.394 56.1113 193.746 58.4544H194.467V58.455H200.775V49.6231L194.467 49.6231V51.4589Z" fill="white"/>
<path fill-rule="evenodd" clip-rule="evenodd" d="M362.267 51.4588C357.996 49.1989 348.235 46.4575 341.179 52.5966C333.969 58.8691 335.411 69.5093 337.033 74.0454C338.205 76.749 342.693 82.7652 351.452 83.5081C361.546 84.3643 367.464 75.202 368.846 71.8374L365.196 70.4405L362.357 69.314C361.966 71.5671 358.788 77.1996 352.444 77.1996C346.099 77.1996 343.912 70.8311 343.612 67.6468C343.191 64.4325 344.026 57.373 350.731 54.8496C355.711 53.6329 360.194 56.1113 361.546 58.4544H362.267V58.455H367.674V49.6231L362.267 49.6231V51.4588Z" fill="#014051"/>
<path fill-rule="evenodd" clip-rule="evenodd" d="M362.267 51.4588C357.996 49.1989 348.235 46.4575 341.179 52.5966C333.969 58.8691 335.411 69.5093 337.033 74.0454C338.205 76.749 342.693 82.7652 351.452 83.5081C361.546 84.3643 367.464 75.202 368.846 71.8374L365.196 70.4405L362.357 69.314C361.966 71.5671 358.788 77.1996 352.444 77.1996C346.099 77.1996 343.912 70.8311 343.612 67.6468C343.191 64.4325 344.026 57.373 350.731 54.8496C355.711 53.6329 360.194 56.1113 361.546 58.4544H362.267V58.455H367.674V49.6231L362.267 49.6231V51.4588Z" fill="white"/>
<path fill-rule="evenodd" clip-rule="evenodd" d="M469.715 49.3525H450.34V55.661H453.854L453.854 76.5693H450.159V82.8778H453.854V82.8779H461.695V70.0802H465.114L472.538 82.5225L472.6 82.4857V82.8778H481.882V76.5693H478.321L473.393 68.3107C475.774 66.9278 479.809 63.3578 479.809 58.2745C479.809 53.009 473.428 50.2217 469.987 49.4135V49.3525H469.715ZM467.706 55.661H461.695V63.7717H466.856L466.741 63.6818C468.394 63.802 471.698 63.1771 471.698 59.7165C471.698 56.9944 469.505 55.9525 467.706 55.661Z" fill="#014051"/>
<path fill-rule="evenodd" clip-rule="evenodd" d="M469.715 49.3525H450.34V55.661H453.854L453.854 76.5693H450.159V82.8778H453.854V82.8779H461.695V70.0802H465.114L472.538 82.5225L472.6 82.4857V82.8778H481.882V76.5693H478.321L473.393 68.3107C475.774 66.9278 479.809 63.3578 479.809 58.2745C479.809 53.009 473.428 50.2217 469.987 49.4135V49.3525H469.715ZM467.706 55.661H461.695V63.7717H466.856L466.741 63.6818C468.394 63.802 471.698 63.1771 471.698 59.7165C471.698 56.9944 469.505 55.9525 467.706 55.661Z" fill="white"/>
<path fill-rule="evenodd" clip-rule="evenodd" d="M426.371 83.5086C435.928 83.5086 443.675 75.6406 443.675 65.935C443.675 56.2293 435.928 48.3613 426.371 48.3613C416.815 48.3613 409.068 56.2293 409.068 65.935C409.068 75.6406 416.815 83.5086 426.371 83.5086ZM426.462 77.0198C431.19 77.0198 435.023 71.9964 435.023 65.7997C435.023 59.603 431.19 54.5796 426.462 54.5796C421.733 54.5796 417.9 59.603 417.9 65.7997C417.9 71.9964 421.733 77.0198 426.462 77.0198Z" fill="#014051"/>
<path fill-rule="evenodd" clip-rule="evenodd" d="M426.371 83.5086C435.928 83.5086 443.675 75.6406 443.675 65.935C443.675 56.2293 435.928 48.3613 426.371 48.3613C416.815 48.3613 409.068 56.2293 409.068 65.935C409.068 75.6406 416.815 83.5086 426.371 83.5086ZM426.462 77.0198C431.19 77.0198 435.023 71.9964 435.023 65.7997C435.023 59.603 431.19 54.5796 426.462 54.5796C421.733 54.5796 417.9 59.603 417.9 65.7997C417.9 71.9964 421.733 77.0198 426.462 77.0198Z" fill="white"/>
<path fill-rule="evenodd" clip-rule="evenodd" d="M247.966 0.371094H237.651V5.39652H242.035L242.035 26.9533H237.65V31.9788H252.33V26.9533H247.945L247.945 5.39652H247.966V0.371094ZM277.589 0.371094H267.274V5.39652H271.658L271.658 26.9533H267.274V31.9788H281.953V26.9533H277.568V5.39652H277.589V0.371094Z" fill="#014051"/>
<path fill-rule="evenodd" clip-rule="evenodd" d="M247.966 0.371094H237.651V5.39652H242.035L242.035 26.9533H237.65V31.9788H252.33V26.9533H247.945L247.945 5.39652H247.966V0.371094ZM277.589 0.371094H267.274V5.39652H271.658L271.658 26.9533H267.274V31.9788H281.953V26.9533H277.568V5.39652H277.589V0.371094Z" fill="white"/>
<ellipse cx="204.985" cy="14.5216" rx="3.96744" ry="3.96744" fill="#014051"/>
<ellipse cx="204.985" cy="14.5216" rx="3.96744" ry="3.96744" fill="white"/>
<ellipse cx="315.808" cy="14.5216" rx="3.96744" ry="3.96744" fill="#014051"/>
<ellipse cx="315.808" cy="14.5216" rx="3.96744" ry="3.96744" fill="white"/>
</svg>
