<svg width="241" height="51" viewBox="0 0 241 51" fill="none" xmlns="http://www.w3.org/2000/svg">
<path fill-rule="evenodd" clip-rule="evenodd" d="M78.373 0L73.4262 14.0675L64.1509 10.6666L60.7627 18.3917C59.5342 16.9322 57.7962 15.6932 55.3394 14.6853C49.3105 12.2119 40.6076 14.7699 36.0159 20.5597C32.4604 25.0429 30.7598 31.3811 32.615 38.9559C34.7138 47.5253 43.1785 49.571 48.383 49.7771C50.5472 49.8286 57.1636 49.6841 60.7501 47.458L58.1221 39.1105C53.0206 40.3472 41.8284 42.4803 40.3444 32.463C42.7663 35.1425 50.1762 39.1412 60.4409 33.6997C61.626 32.8752 63.9036 30.206 63.5326 26.1249C63.3241 23.8313 62.8656 21.7877 61.8762 20.0081L70.489 22.8791C68.9947 26.1254 66.7789 34.5041 69.8707 42.048C72.9624 49.5919 83.1137 50.3443 87.8029 49.7774C89.6064 49.4167 93.7391 47.9842 95.8415 45.1398L90.2763 38.0287C88.1636 39.5746 82.7633 41.4297 78.0638 36.4828C77.5485 34.5247 77.0745 29.5573 79.3005 25.3525L87.8029 28.7534L91.6676 19.9419L82.2377 16.3864L87.1845 3.55553L78.373 0ZM0.460449 47.304L4.78892 3.40089L16.0739 4.48301C19.0626 4.94678 25.9057 7.17285 29.3685 12.367C33.6969 18.8597 31.0689 27.9804 29.3685 29.5263C29.2775 29.609 29.1813 29.6988 29.0786 29.7945L29.0785 29.7946C27.2618 31.4886 23.4425 35.0501 11.5908 34.3186L10.8179 49.7774L0.460449 47.304ZM11.9 25.8162L12.9821 12.6762C13.1169 12.7094 13.2563 12.7431 13.3998 12.7779L13.4004 12.778C16.8228 13.6066 22.5417 14.991 21.9482 22.2607C21.4845 25.0433 18.4546 26.8056 11.9 25.8162ZM44.8271 25.3527C47.1974 23.2915 53.3294 22.2607 53.9478 25.8162C53.3294 27.5168 50.5469 29.372 44.8271 25.3527ZM109.755 20.251H100.634C99.8918 35.5861 97.2328 45.7065 95.9961 48.8498L105.581 49.7773C109.538 38.5233 110.012 25.4039 109.755 20.251ZM105.271 2.78267C107.847 2.11279 113.186 1.48413 113.928 4.32855C114.67 7.17298 112.794 9.94533 111.764 10.976C109.445 12.4188 104.189 14.2841 101.715 10.203C101.097 8.39941 100.943 4.3903 105.271 2.78267ZM126.141 14.8402C110.682 15.2112 112.073 36.8433 114.701 47.6129L124.286 45.9126C121.565 35.6479 122.946 29.114 123.513 27.2074C123.976 26.0222 124.626 24.734 127.223 24.734C129.82 24.734 131.242 25.9707 131.087 28.135C131.397 36.6373 130.283 45.0696 129.387 48.2314L139.281 49.9319C142.249 33.36 140.414 23.961 139.126 21.3329C136.776 15.5204 129.49 14.5826 126.141 14.8402ZM145.619 15.4588L144.537 34.3186C144.382 37.9771 145.366 45.0317 150.566 47.4586C155.204 49.6228 161.232 50.0866 166.798 47.1494C171.25 44.7996 172.363 40.0383 172.981 33.391L173.6 18.8597H163.86L163.551 33.391C163.551 35.8644 162.5 40.6876 158.295 40.1929C154.09 39.6982 153.967 34.0094 154.431 31.2268L155.358 15.9225L145.619 15.4588ZM174.682 5.71972L178.855 50.2412C186.688 50.9626 203.033 49.0663 205.754 35.7099C206.011 31.639 205.012 22.9409 198.952 20.7148C192.892 18.4887 187.358 18.6536 185.348 19.0143L184.884 3.40089L174.682 5.71972ZM186.43 27.5166L187.358 40.6567C190.45 39.8837 196.788 37.2248 196.169 32.1543C195.551 27.0838 189.419 26.9498 186.43 27.5166ZM236.13 29.6032C231.725 36.7147 221.986 36.0448 216.575 35.3234C219.358 44.3668 232.962 39.8065 235.59 35.4003L241 42.3567C239.392 44.8302 234.559 47.4066 232.343 48.3857C222.45 51.4006 214.797 48.1538 211.705 44.5983C208.614 41.0427 207.314 35.4663 207.686 30.3762C208.15 24.038 210.701 20.4055 214.411 17.3133C219.204 13.3186 228.633 12.9849 232.343 15.4583C236.053 17.9317 239.772 23.7244 236.13 29.6032ZM219.667 24.8884C217.688 26.7435 218.043 27.5162 219.744 28.1347C223.299 28.7529 228.942 28.1348 228.633 24.8884C228.324 21.6421 222.14 22.5696 219.667 24.8884Z" fill="#6E9ECD"/>
</svg>
