<svg width="298" height="98" viewBox="0 0 298 98" fill="none" xmlns="http://www.w3.org/2000/svg">
<path d="M255.347 52.1611V77.9969H244.588V55.1685C244.588 53.3202 244.162 51.6441 243.309 50.1404C242.457 48.6054 241.31 47.3992 239.87 46.5221C238.459 45.6136 236.886 45.1593 235.152 45.1593C233.417 45.1593 231.83 45.6136 230.389 46.5221C228.978 47.3992 227.847 48.6054 226.994 50.1404C226.171 51.6441 225.759 53.3202 225.759 55.1685V77.9969H215L214.956 20.0637H225.715L225.759 39.0504C227.259 37.3587 229.052 36.0273 231.139 35.0561C233.226 34.0537 235.475 33.5524 237.886 33.5524C241.09 33.5524 244.015 34.3983 246.66 36.09C249.306 37.7503 251.408 39.9903 252.966 42.8097C254.554 45.5979 255.347 48.715 255.347 52.1611Z" fill="#00ADC9"/>
<path d="M195.295 33.9698H205.73V75.6834C205.73 78.9037 205.103 81.8258 203.848 84.4498C202.594 87.1036 200.883 89.3697 198.716 91.2482C196.55 93.1566 194.069 94.6176 191.275 95.6314C188.481 96.6751 185.545 97.1969 182.466 97.1969C179.472 97.1969 176.593 96.5558 173.827 95.2736C171.062 93.9915 168.61 92.2322 166.472 89.9959C165.434 88.861 164.891 88.197 164.529 87.684L172.465 80.6223C172.797 81.1354 173.129 81.407 173.742 82.2135C174.911 83.4658 176.251 84.4349 177.762 85.1207C179.273 85.8363 180.841 86.1941 182.466 86.1941C184.119 86.1941 185.702 85.9556 187.213 85.4785C188.752 85.0014 190.135 84.3007 191.361 83.3764C192.587 82.4818 193.542 81.3786 194.226 80.0666C194.939 78.7844 195.295 77.3234 195.295 75.6834V74.0133C194.314 75.0997 193.743 75.2654 191.719 76.4879C189.695 77.7105 185.887 77.9279 183.236 77.9279C180.156 77.9279 177.277 77.3166 174.597 76.0941C171.917 74.8715 169.509 73.6856 167.456 71.5387C165.432 69.362 163.877 67.3243 162.708 64.4916C161.568 61.6589 161.3 58.6134 161.3 55.3633C161.3 52.1131 161.568 50.0415 162.708 47.2088C163.877 44.3762 165.474 41.8864 167.498 39.7395C169.551 37.5628 171.917 35.8632 174.597 34.6407C177.277 33.4181 180.156 32.8069 183.236 32.8069C185.887 32.8069 190.059 33.2729 191.84 34.1782C192.956 34.7818 194.435 35.838 195.295 36.5623V33.9698ZM183.364 67.4171C185.559 67.4171 187.498 66.8357 189.18 65.6728C190.89 64.4801 192.23 62.8997 193.2 60.9318C194.169 58.934 194.654 57.723 194.654 55.3674C194.654 52.982 194.155 51.771 193.157 49.803C192.188 47.835 190.848 46.2547 189.137 45.062C187.455 43.8693 185.531 43.2729 183.364 43.2729C181.226 43.2729 179.303 43.4875 177.535 44.6802C175.768 45.8431 174.305 47.2993 173.25 49.2673C172.195 51.2352 171.689 52.9521 171.689 55.3674C171.689 57.7826 172.075 59.2498 173.129 61.2178C174.184 63.1858 175.737 64.5099 177.505 65.6728C179.273 66.8357 181.226 67.4171 183.364 67.4171Z" fill="#00ADC9"/>
<path d="M133.476 51.2096V77.9967H122.388V54.1178C122.388 52.3304 121.949 50.7097 121.07 49.2556C120.192 47.7712 119.01 46.6049 117.526 45.7567C116.072 44.8782 114.451 44.4389 112.664 44.4389C110.876 44.4389 109.241 44.8782 107.756 45.7567C106.302 46.6049 105.136 47.7712 104.257 49.2556C103.409 50.7097 102.985 52.3304 102.985 54.1178V77.9967H91.8974L91.8521 19.6926H102.94L102.985 38.5316C104.53 36.8958 106.378 35.6083 108.529 34.6692C110.68 33.6998 112.997 33.2151 115.481 33.2151C118.783 33.2151 121.797 34.033 124.524 35.6689C127.25 37.2744 129.416 39.4405 131.022 42.1669C132.658 44.863 133.476 47.8773 133.476 51.2096Z" fill="#00ADC9"/>
<path d="M72.5726 33.9366H83.7488V77.9966H72.5726V33.9366ZM78.2523 30.255C76.6034 30.255 75.214 29.7206 74.0842 28.6519C72.9543 27.5526 72.3894 26.1784 72.3894 24.5295C72.3894 22.9111 72.9543 21.5523 74.0842 20.453C75.214 19.3537 76.5881 18.804 78.2065 18.804C79.8249 18.804 81.1838 19.3537 82.2831 20.453C83.4129 21.5523 83.9778 22.9111 83.9778 24.5295C83.9778 26.1784 83.4282 27.5526 82.3289 28.6519C81.2296 29.7206 79.8707 30.255 78.2523 30.255Z" fill="#FA8321"/>
<path d="M142.707 33.6951H153.883V77.9966H142.707V33.6951ZM148.387 30.255C146.738 30.255 145.349 29.7206 144.219 28.6519C143.089 27.5526 142.524 26.1784 142.524 24.5295C142.524 22.9111 143.089 21.5523 144.219 20.453C145.349 19.3537 146.723 18.804 148.341 18.804C149.959 18.804 151.318 19.3537 152.418 20.453C153.547 21.5523 154.112 22.9111 154.112 24.5295C154.112 26.1784 153.563 27.5526 152.463 28.6519C151.364 29.7206 150.005 30.255 148.387 30.255Z" fill="#00ADC9"/>
<path d="M51.3943 77.9966V20.0547H62.9827V77.9966H51.3943Z" fill="#FA8321"/>
<path d="M21.7678 78.6435C17.7698 78.6435 14.1194 77.6397 10.8168 75.632C7.54303 73.6243 4.92116 70.9237 2.95113 67.5304C1.01008 64.1371 0.0395508 60.3903 0.0395508 56.29C0.0395508 53.2078 0.604485 50.3234 1.73435 47.6371C2.86422 44.9224 4.41417 42.5471 6.38419 40.5111C8.38319 38.4468 10.7009 36.835 13.3372 35.6756C15.9736 34.5162 18.7838 33.9365 21.7678 33.9365C25.1574 33.9365 28.2573 34.6435 31.0675 36.0573C33.9066 37.443 36.3112 39.3517 38.2812 41.7836C40.2513 44.2155 41.6853 46.9867 42.5834 50.0972C43.4815 53.2078 43.6843 56.4597 43.1918 59.853H11.4251C11.8307 61.4366 12.4971 62.8646 13.4241 64.1371C14.3512 65.3813 15.5245 66.3852 16.9441 67.1487C18.3637 67.8839 19.9716 68.2656 21.7678 68.2939C23.6219 68.3222 25.3022 67.898 26.8087 67.0214C28.3442 66.1165 29.6624 65.02 30.266 64.2957H42.2769C40.8887 68.4603 37.5087 72.6248 33.5445 75.0806C30.039 77.4559 26.1134 78.6435 21.7678 78.6435ZM11.0775 52.0908H32.4581C32.1394 50.3941 31.4586 48.8671 30.4156 47.5098C29.4016 46.1242 28.1414 45.0214 26.6349 44.2013C25.1284 43.3813 23.506 42.9712 21.7678 42.9712C20.0295 42.9712 18.4216 43.3813 16.9441 44.2013C15.4666 44.9931 14.2064 46.0818 13.1634 47.4674C12.1494 48.8247 11.4541 50.3659 11.0775 52.0908Z" fill="#FA8321"/>
<path d="M272.414 1.46505C284.389 -0.852625 291.728 1.46505 293.901 2.9136C295.473 3.67072 296.649 7.09188 297.04 8.70782C297.04 24.9316 290.763 38.8054 287.624 43.7144C285.612 45.9677 280.188 49.5569 274.587 45.8872C267.586 41.3002 253.583 27.2975 250.928 23.1933C248.803 19.9099 250.203 15.5482 251.169 13.7777C253.261 10.6392 260.44 3.78273 272.414 1.46505Z" fill="#00ADC9"/>
<path fill-rule="evenodd" clip-rule="evenodd" d="M283.689 11.6047C284.527 11.6047 285.213 12.2715 285.237 13.1094C285.395 18.6317 282.995 22.2852 281.294 23.784C281.133 24.2871 281.022 25.1419 281.002 26.2274C280.98 27.4432 281.071 28.6778 281.161 29.4265C281.249 30.1601 280.807 30.8537 280.104 31.0833C279.402 31.3129 278.635 31.0144 278.273 30.3704C277.908 29.7224 277.192 29.3232 276.128 29.1751C275.068 29.0276 273.936 29.1793 273.249 29.3641C272.784 29.4894 272.287 29.391 271.904 29.0979C271.522 28.8048 271.297 28.3503 271.297 27.8685C271.297 27.8389 271.248 27.562 270.662 27.1073C270.138 26.7002 269.472 26.3839 269.039 26.2312C268.318 25.9765 267.89 25.2327 268.033 24.4808C268.525 21.899 267.078 19.5008 266.295 18.6662C265.835 18.175 265.744 17.4425 266.071 16.854C266.399 16.2656 267.069 15.9559 267.729 16.088C268.63 16.2682 269.858 16.2171 271.12 16.0309C272.096 15.8869 273.006 15.6755 273.658 15.4935C274.96 13.893 276.876 12.9576 278.605 12.4123C280.524 11.8069 282.455 11.6047 283.689 11.6047ZM269.474 17.7411C269.56 17.7381 269.645 17.7343 269.731 17.7297C268.92 17.7731 268.123 17.7466 267.426 17.6073L267.425 17.6068C268.049 17.7316 268.752 17.7661 269.474 17.7411ZM272.846 27.8685V27.8682C273.343 27.7347 274.016 27.6159 274.754 27.5789C274.629 27.5852 274.505 27.5938 274.385 27.6045C273.793 27.6568 273.258 27.7576 272.846 27.8685ZM279.623 29.611L279.621 29.6077C279.428 27.9925 279.235 24.3824 280.009 22.8345C281.3 21.8665 283.842 18.575 283.687 13.1537C283.573 13.1537 283.45 13.1557 283.321 13.16C283.451 13.1557 283.574 13.1537 283.689 13.1537C283.698 13.4742 283.698 13.7873 283.689 14.0928C283.683 14.2995 283.673 14.5028 283.659 14.7026C283.352 19.2045 281.173 21.9623 280.01 22.8345C279.525 23.8057 279.42 25.5888 279.457 27.1816C279.479 28.1291 279.551 29.0092 279.623 29.611ZM279.295 20.0547C280.561 20.0547 281.588 19.0278 281.588 17.7612C281.588 16.4945 280.561 15.4676 279.295 15.4676C278.028 15.4676 277.001 16.4945 277.001 17.7612C277.001 19.0278 278.028 20.0547 279.295 20.0547Z" fill="white"/>
<path d="M268.793 33.5745C266.282 38.403 272.254 44.4386 275.553 46.8528C263.385 39.3204 253.905 27.4584 250.686 22.4689C255.128 28.4563 260.585 29.1484 262.758 28.746C264.303 27.9734 264.528 26.4927 264.447 25.8489L271.69 32.6088L268.793 33.5745Z" fill="#FA8321"/>
</svg>
